<svg xmlns="http://www.w3.org/2000/svg" width="167" height="78" viewBox="0 0 167 78">
    <defs>
        <linearGradient id="a" x1="35.009%" x2="63.943%" y1="-40.286%" y2="60.481%">
            <stop offset="0%" stop-color="#E4EBF2"/>
            <stop offset="0%" stop-color="#E6EDF3"/>
            <stop offset="100%" stop-color="#F8FCFF"/>
        </linearGradient>
        <linearGradient id="b" x1="25.865%" x2="72.447%" y1="-40.286%" y2="60.481%">
            <stop offset="0%" stop-color="#E4EBF2"/>
            <stop offset="0%" stop-color="#E6EDF3"/>
            <stop offset="100%" stop-color="#F8FCFF"/>
        </linearGradient>
        <linearGradient id="c" x1="37.523%" x2="61.605%" y1="-40.286%" y2="60.481%">
            <stop offset="0%" stop-color="#E4EBF2"/>
            <stop offset="0%" stop-color="#E6EDF3"/>
            <stop offset="100%" stop-color="#F8FCFF"/>
        </linearGradient>
        <linearGradient id="d" x1="-21.926%" x2="116.897%" y1="-40.286%" y2="60.481%">
            <stop offset="0%" stop-color="#E4EBF2"/>
            <stop offset="0%" stop-color="#E6EDF3"/>
            <stop offset="100%" stop-color="#F8FCFF"/>
        </linearGradient>
        <linearGradient id="e" x1="50%" x2="50%" y1="-17.54%" y2="38.053%">
            <stop offset="0%" stop-color="#E4EBF2"/>
            <stop offset="100%" stop-color="#F8FCFF"/>
        </linearGradient>
        <linearGradient id="f" x1="96.354%" x2="67.945%" y1="50%" y2="49.825%">
            <stop offset="0%" stop-color="#F8FCFF"/>
            <stop offset="100%" stop-color="#E4EBF2"/>
        </linearGradient>
        <linearGradient id="g" x1="96.354%" x2="67.945%" y1="50%" y2="49.984%">
            <stop offset="0%" stop-color="#F8FCFF"/>
            <stop offset="100%" stop-color="#E4EBF2"/>
        </linearGradient>
        <linearGradient id="h" x1="76.258%" x2="66.777%" y1="46.03%" y2="50.687%">
            <stop offset="0%" stop-color="#F291B0"/>
            <stop offset="100%" stop-color="#F65B7D"/>
        </linearGradient>
        <linearGradient id="i" x1="88.236%" x2="56.824%" y1="48.221%" y2="52.976%">
            <stop offset="0%" stop-color="#F291B0"/>
            <stop offset="100%" stop-color="#F65B7D"/>
        </linearGradient>
        <linearGradient id="j" x1="0%" y1="17.198%" y2="82.802%">
            <stop offset="0%" stop-color="#F291B0"/>
            <stop offset="100%" stop-color="#F65B7D"/>
        </linearGradient>
        <linearGradient id="k" x1="45.765%" x2="54.235%" y1="0%" y2="100%">
            <stop offset="0%" stop-color="#52CFD1"/>
            <stop offset="100%" stop-color="#00B0B2"/>
        </linearGradient>
        <linearGradient id="l" x1="0%" x2="50%" y1="35.923%" y2="64.077%">
            <stop offset="0%" stop-color="#D4EDA7"/>
            <stop offset="100%" stop-color="#B0CF7A"/>
        </linearGradient>
    </defs>
    <g fill="none" fill-rule="evenodd" transform="translate(-13 -7)">
        <path d="M0 0h200v88H0z"/>
        <path fill="url(#a)" d="M142.185 2.28l-.394-.001.004-1.126h-.038l.002-.367c0-.007-.007-.013-.015-.013l-7.168-.018c-.007 0-.014.007-.014.014s.007.012.014.012l.131.001v.042h-.131c-.007 0-.014.007-.014.014s.007.012.014.012h.13v.044h-.13c-.007 0-.014.005-.014.012 0 .006.007.014.014.014h.13v.042h-.13c-.007 0-.014.007-.014.014s.007.012.014.012h.13v.044l-.13-.001c-.007 0-.015.006-.015.013 0 .008.007.013.015.013h.13v.044h-.13c-.008 0-.015.004-.015.013 0 .006.007.013.014.013h.13v.01l-1.232-.004-.16 51.532 9.837.024.162-51.997-1.122-.003-.005 1.59zM134.312.71l.001-.042h1l-.001.043-1-.001zm1 0V.666l1 .002V.71l-1-.002zm0 0l.001-.042h1l-.001.043-1-.001zm1 0V.667h1v.043l-1-.002zm0 0V.668h1v.043l-1-.001zm1 0V.667l1 .001v.043l-1-.001zm1 0V.667l1 .002V.71l-1-.001zm0 0V.667h1v.043l-1-.002zm1 0l.001-.043 1 .002-.001.042-1-.001zm1 0V.668h1v.043l-1-.001zm0 0V.666l1 .002V.71l-1-.002zm1 0V.668h1v.043l-1-.001zm-7 0V.667l1 .001v.044l-1-.002zm1 0V.667l1 .001v.044l-1-.002zm0 0V.668l1 .001v.044l-1-.001zm1 0V.667l1 .001v.044l-1-.002zm0 0V.667l1 .001v.044l-1-.002zm1 0l.001-.043h1v.045l-1-.002zm1 0l.001-.043h1v.045l-1-.002zm0 0V.667l1 .001v.044l-1-.002zm1 0l.001-.043h1l-.001.045-1-.002zm1 0V.667l1 .001v.044l-1-.002zm0 0V.667l1 .001v.044l-1-.002zm1 0l.001-.043 1 .001v.044l-1-.002zm-7 0V.667h1v.043l-1-.002zm1 0l.001-.043 1 .002V.71l-1-.001zm0 0l.001-.042h1v.043l-1-.001zm1 0l.001-.042h1v.043l-1-.001zm0 0V.667h1v.043l-1-.002zm1 0l.001-.042h1l-.002.043-.999-.002zm1 0V.667h1v.043l-1-.002zm0 0l.001-.042h1v.043l-1-.002zm1 0V.667l1 .002v.042l-1-.001zm1 0l.001-.042h1v.043l-1-.002zm0 0l.001-.042h1v.043l-1-.001zm1 0l.001-.042h1l-.001.043-1-.001zm-7 0l.001-.043h1l-.001.045-1-.002zm1 0V.667l1 .001v.044l-1-.002zm0 0l.001-.043h1l-.002.045-.999-.002zm1 0V.667l1 .001v.044l-1-.002zm0 0l.001-.043 1 .001v.044l-1-.002zm1 0V.667l1 .001v.044l-1-.002zm1 0V.667l1 .001v.044l-1-.002zm0 0V.667h1v.045l-1-.002zm1 0l.001-.043 1 .001-.002.044-.999-.002zm1 0V.667h1v.045l-1-.002zm0 0V.667l1 .001v.044l-1-.002zm1 0V.667h1v.045l-1-.002zm-7 0V.667l1 .001v.043l-1-.001zm1 0V.667l1 .001v.043l-1-.001zm0 0V.667l1 .002V.71h-1zm1 0V.667l1 .001v.043l-1-.001zm0 0V.667l1 .001v.043h-1zm1 0l.001-.043 1 .001v.043l-1-.001zm1 0l.002-.043.999.001-.001.043h-1zm0 0V.667l1 .001v.043l-1-.001zm1 0l.001-.043 1 .001-.001.043-1-.001zm1 0V.667l1 .001v.043l-1-.001zm0 0V.667l1 .001v.043l-1-.001zm1 0V.667l1 .001v.043h-1zm-7-.017V.684l1 .002v.008h-1zm1 0V.684l1 .001v.01l-1-.002zm0 0V.684l1 .002v.008h-1zm1 0V.684l1 .001v.01l-1-.002zm0 0V.684l1 .002v.008h-1zm1 0V.684l1 .001v.01l-1-.002zm1 0V.684l1 .001v.01l-1-.002zm0 0v-.01l1 .003v.008h-1zm1 0V.684l1 .001v.01l-1-.002zm1 0V.684l1 .002v.008h-1zm0 0V.684l1 .001v.01l-1-.002zm1 0V.684l1 .001v.01l-1-.002z" transform="translate(12.688 6.333)"/>
        <path fill="url(#b)" d="M149.593 14.667l-.004.863h-.327v-.11h-.04l-.004.629h-.327v-.112h-.041l-.003.622-.331-.001v.096l-.468.497-.071 16.733-.576.954-.089 20.811 9.911.018.09-20.812-.568-.956.072-16.733-.463-.498v-.097h-.33l.002-.622h-.041v.112h-.328l.002-.63h-.041v.11h-.328l.004-.864h-.042v.11l-.408-.001.001-.11h-.042v.11l-4.72-.008v-.11h-.04l-.001.11-.408-.001v-.11z" transform="translate(12.688 6.333)"/>
        <path fill="url(#c)" d="M165.392 26.667l-.001.415-.17.026h-.24v-.089h-.13v.089l-1.906-.006-.548-.092-.882.119v.274h-.123l-.002.91h.092v.215h-.093v.107h.092v.218h-.092v.107h.092l-.001.217h-.093v.106h.093l-.001.218h-.093v.108h.093l-.001.216h-.092v.108h.092v.217h-.093v.107h.092v.217h-.093v.107h.092v.217h-.093v.107h.092v.217h-.093v.108h.092v.217h-.093v.107h.093l-.001.216h-.093v.107h.093l-.001.218h-.092v.107h.091v.217h-.092v.107h.092v.217h-.093v.108h.092v.217h-.093v.106h.092l-.001.218h-.092v.107h.092v.218h-.093v.107h.092v.216h-.093v.107h.092v.217h-.092v.109h.091v.216h-.093v.107h.093l-.001.217h-.093v.107h.093l-.001.218-.092-.001v.107h.092l-.001.217h-.092v.108h.092v.218h-.093v.105h.092l-.003 1.141h-.092l-.054 19.36 5.171.014.053-19.36h-.092l.003-1.141h.092v-.105h-.092l.001-.218h.092v-.108h-.092v-.217h.093v-.106h-.092v-.218h.093v-.108h-.092v-.216h.093v-.107h-.092v-.217h.093v-.108h-.092v-.217h.092v-.107h-.091v-.216h.092v-.107h-.091v-.218h.092l.001-.107h-.093l.001-.218h.092v-.106h-.091v-.217h.092v-.108h-.092v-.217h.093v-.107h-.092v-.217h.093v-.107h-.092v-.218h.093v-.107h-.092v-.216h.093v-.107h-.092v-.217h.093v-.108h-.092v-.217h.092v-.107h-.091v-.218h.092v-.106h-.092l.001-.218h.093v-.107h-.092v-.217h.093v-.107l-.093-.001v-.216h.093v-.107h-.092v-.218h.093v-.106h-.092v-.217h.093v-.108h-.092v-.217h.093v-.107h-.092v-.216h.093l.002-.909h-.121v-.274l-.622-.116v-.36h-.055v.354l-.318.052.001-.406z" transform="translate(12.688 6.333)"/>
        <path fill="url(#d)" d="M80.885 7.692c0 .113.086.202.197.222l-.002.864-6.904 2.843-.002.562c-.066.014-.111.037-.111.064 0 .026.045.048.11.062v.271c-.066.014-.111.035-.112.063 0 .026.046.047.111.06v.273c-.066.014-.112.037-.112.061 0 .028.046.05.111.062v.272c-.066.014-.112.035-.112.062 0 .026.046.05.111.063v.271c-.066.013-.112.035-.112.062 0 .026.046.048.111.063v.27c-.066.013-.112.036-.112.064 0 .025.046.046.11.06v.038l.48.001-.004 1.45-.48-.002v.557c-.066.014-.112.037-.112.064 0 .025.045.047.11.061v.272c-.065.012-.111.035-.111.062 0 .027.045.05.11.062v.272c-.066.01-.111.035-.111.062 0 .026.045.047.11.06v.271c-.066.014-.111.038-.111.064 0 .025.045.05.11.06v.274c-.066.012-.112.035-.112.06 0 .027.046.05.111.063v.27c-.066.015-.112.036-.112.064 0 .025.046.05.111.063v.27c-.066.014-.112.036-.112.062 0 .026.045.05.111.062l-.017 5.894-.643-.002-.045 15.68-3.748-.01-.014 5.032 15.905.042.095-33.463-1.737-4.404-2.792 1.148.002-.831a.229.229 0 0 0 .199-.22.232.232 0 0 0-.237-.23c-.132 0-.238.1-.238.228" transform="translate(12.688 6.333)"/>
        <path fill="url(#e)" d="M24.506 8.804l-.61-.001-.003.975h-.072v.151l-1.19-.524-3.279.68.137.138v.293c-5.299-.39-8.977-.648-8.977-.648s-.305.089-.405.554a.915.915 0 0 0 .154.723s3.091.63 9.772 1.274l.623 14.064-2.77 19.57-.05.013v.184s-.609-.072-1.163-.037c-.711.05-1.167.2-1.167.2v.182s-.609-.075-1.163-.038c-.712.05-1.167.198-1.167.198v.185s-.61-.073-1.164-.036a5.17 5.17 0 0 0-1.166.198v.184s-.608-.076-1.163-.037c-.71.049-1.167.195-1.167.195v.184s-.609-.072-1.162-.034c-.713.047-1.169.197-1.169.197v.184s-.608-.073-1.161-.037a5.278 5.278 0 0 0-1.169.198v.184s-.608-.076-1.162-.038c-.712.05-1.167.2-1.167.2v.32l-.763.33-.001.391-.442-.001-.008 2.888 93.989.257.011-4.396h-.206l.004-1.763-.994-.003.003-1.179h-.453l.002-1.1s-.454-.152-1.165-.201c-.553-.04-1.163.03-1.163.03v-.186s-.454-.15-1.165-.204c-.554-.04-1.163.03-1.163.03v-.183s-.454-.15-1.165-.204c-.553-.042-1.163.03-1.163.03l.001-.183s-.455-.152-1.166-.205c-.554-.04-1.164.03-1.164.03v-.184s-.453-.15-1.164-.204c-.554-.04-1.162.031-1.162.031v-.182s-.455-.154-1.166-.205c-.554-.039-1.163.03-1.163.03v-.187s-.454-.15-1.166-.2c-.553-.043-1.162.028-1.162.028v-.182s-.455-.153-1.165-.206c-.554-.039-1.163.031-1.163.031v-.183s-.45-.153-1.166-.155c-.715-.002-1.166.149-1.166.149v.183s-.61-.074-1.164-.038c-.712.05-1.166.2-1.166.2v.064c-.203-2.642-.441-6.532-.431-10.141.014-5.255.206-15.233.266-18.231l.816-.018s.306-.258.17-1.24c-.163-1.158-.535-1.242-.535-1.242l-.579.023.001-.231h-.276v.242c-1.004.038-2.843.105-5.233.178l.003-.838h-.072l.003-.977h-.121v-.108l-.496-.002v.108h-.33v-.08l-.249-.002v.08l-1.465-.003-.003.977h-.07l-.003.927-.612.017v-.186l-1.9-.005-.002.238c-3.556.086-7.613.16-11.678.183l.002-.232-1.213-.003v.24c-.816.004-1.63.004-2.437.001a310.79 310.79 0 0 1-16.317-.463l.003-1.197h-.07l.003-.975-1.803-.005v-.137l-.248-.001v.137zm7.813 17.816c.011-4.267.206-10.737.277-12.953 1.928.1 3.964.173 6.136.219l.58 15.935-1.555 14.947c-.043.012-.071.022-.071.022v.183s-.574-.073-1.094-.037c-.671.05-1.1.201-1.1.201l-.001.184s-.573-.074-1.095-.037c-.67.049-1.098.197-1.098.197v.186s-.495-.064-.983-.042c-.002-4.661-.006-15.018.004-19.005zM50.345 44.66c-.015-3.31-.042-10.474-.029-15.103.015-5.15.256-13.28.336-15.86 2.334-.005 4.48-.017 6.425-.03.307 3.907 1.246 16.133 1.235 19.801-.004 1.55-.328 6.137-.636 10.16a7.503 7.503 0 0 0-1.139-.03c-.747.05-1.225.197-1.225.197v.185s-.64-.073-1.221-.036a5.652 5.652 0 0 0-1.224.195v.185s-.64-.076-1.222-.039c-.748.052-1.225.2-1.225.2v.183l-.075-.008z" transform="translate(12.688 6.333)"/>
        <ellipse cx="94.633" cy="83.764" fill="url(#f)" rx="8.343" ry="1.097"/>
        <g transform="translate(28.11 14.333)">
            <ellipse cx="49.304" cy="58.931" fill="url(#g)" rx="49.304" ry="1.931"/>
            <path fill="#5E5E70" d="M75.234 50.667c0 3.681 2.994 6.666 6.688 6.666 3.693 0 6.687-2.985 6.687-6.666 0-3.682-2.994-6.667-6.687-6.667-3.694 0-6.688 2.985-6.688 6.667M6.687 50.473c0-4.68 3.818-8.473 8.527-8.473 4.708 0 8.527 3.794 8.527 8.473 0 .88-.137 1.729-.387 2.527H7.073a8.437 8.437 0 0 1-.386-2.527z"/>
            <path fill="#5E5E70" d="M73.228 50.473c0-4.68 3.818-8.473 8.527-8.473s8.526 3.794 8.526 8.473A8.42 8.42 0 0 1 89.895 53H73.614a8.42 8.42 0 0 1-.386-2.527z"/>
            <path fill="#E4EBF2" d="M93.004 37.1s3.728 2.257 3.965 6.9c0 0-8.777-3.986-9.592-6.072-.815-2.086 3.308-1.861 5.627-.828"/>
            <path fill="#8486A0" d="M5.184 32.683s-1.99 2.18-1.831 5.65c0 0 4.588.107 4.984-3.211.335-2.815-3.153-2.439-3.153-2.439"/>
            <path fill="#5E5E70" d="M15.166 22.347S9.47 26.034 6.687 32c0 0 11.15-2.533 12.762-6.304 1.612-3.77-4.283-3.349-4.283-3.349"/>
            <path fill="#69697C" d="M7.022 32c2.732-5.966 8.33-9.653 8.33-9.653s2.424-.176 3.707.721C11.015 25.347 7.022 32 7.022 32"/>
            <path fill="url(#h)" d="M95.928 20.37a.447.447 0 0 0-.417-.376c-1.61-.106-4.32-1.027-4.32-3.16 0-1.82 1.933-1.798 2.758-1.705.162.019.261-.168.16-.296-1.11-1.404-5.406-2.432-7.623-3.135-2.4-.761-6.726-2.536-6.726-4.724 0-2.187 5.052-1.363 5.179-2.219.126-.856-1.991-1.792-7.894-2.908C72.214.934 68.387.617 65.22.36 63.396.21 61.164 0 53.87 0c-7.294 0-11.472 1.53-16.222 3.985-3.07 1.587-11.184 6.413-13.236 7.871-2.052 1.459-3.189 1.554-9.661 3.424-4.16 1.202-7.197 2.77-8.837 3.738-.255.15-.101.542.187.476 1.88-.435 4.766-.89 4.766.414 0 1.934-4.578 3.202-8.083 5.548C-.719 27.802.955 32.05.955 32.05S0 32.494 0 33.8c0 .654.382 1.037.763 1.257.328.189.703.276 1.081.276h7.492a8.51 8.51 0 0 1-.389-2.549c0-4.685 3.783-8.483 8.45-8.483 4.665 0 8.448 3.798 8.448 8.483a8.51 8.51 0 0 1-.389 2.55h50.6a8.526 8.526 0 0 1-.387-2.55c0-4.685 3.782-8.483 8.448-8.483 4.667 0 8.449 3.798 8.449 8.483 0 .889-.136 1.745-.389 2.55h2.988c1.119 0 2.117-.71 2.482-1.771.468-1.354.994-3.311.994-5.254 0-3.487-.632-4.501-1.698-5.77-.715-.85-.943-1.701-1.015-2.169z" transform="matrix(-1 0 0 1 99.31 17.667)"/>
            <path fill="url(#i)" d="M80.076 7.248c0-2.169 5.058-1.352 5.184-2.2.127-.849-1.993-1.778-7.902-2.884C72.52 1.26 68.69.945 65.52.69 63.693.542 61.46.333 54.158.333c-7.302 0-11.484 1.517-16.24 3.951-3.074 1.574-11.197 6.358-13.251 7.804-2.055 1.445-3.193 1.54-9.672 3.394-4.164 1.191-7.205 2.746-8.847 3.705-.255.15-.1.538.188.472 1.23-.281 2.89-.571 3.893-.377 7.413 0 15.613-.03 28.894-.03 18.22 0 43.672 1.522 43.672-8.989-1.5-.83-2.72-1.866-2.72-3.015z" transform="matrix(-1 0 0 1 99.31 17.667)"/>
            <path fill="#C64E73" d="M23.147 29.395c.234-2.317.92-3.672.948-3.728l.203.105c-.027.054-2.735 5.502.927 13.012 2.995 6.144 7.203 9.36 8.42 10.2a8.197 8.197 0 0 0 4.673 1.453h7.287V29.821h.229v20.616h20.465c2.213 0 4.015-1.81 4.016-4.034l.01-16.233h.228l-.01 16.233c0 2.351-1.905 4.264-4.244 4.264H38.318a8.425 8.425 0 0 1-4.801-1.493c-1.23-.848-5.478-4.094-8.497-10.288-1.94-3.98-2.09-7.358-1.873-9.491"/>
            <path fill="#C64E73" d="M4.803 50.793l-.003-.084c-.131-5.615 4.4-10.31 10.023-10.375 5.658-.065 10.266 4.496 10.266 10.132 0 .11-.001.218-.005.327a.935.935 0 0 0 .932.967h44.53c.53 0 .949-.439.932-.967l-.002-.084c-.132-5.573 4.44-10.31 10.022-10.375 5.658-.065 10.266 4.496 10.266 10.132 0 .11-.002.218-.005.327a.934.934 0 0 0 .932.967h6.284c-.092.48-.413.78-.735.965a2.17 2.17 0 0 1-1.08.275h-7.487c.031-.1.061-.201.089-.303l.003-.011a8.414 8.414 0 0 0 .293-2.462c-.13-4.572-3.958-8.241-8.537-8.19-4.618.052-8.346 3.807-8.346 8.432a8.465 8.465 0 0 0 .297 2.22l.003.01c.027.103.057.204.089.304H22.998c.031-.1.062-.201.09-.303l.002-.011a8.507 8.507 0 0 0 .293-2.462c-.13-4.572-3.957-8.241-8.536-8.19-4.619.052-8.346 3.807-8.346 8.432a8.466 8.466 0 0 0 .295 2.22l.004.01c.027.103.057.204.09.304H3.902c-.922 0-1.76-.48-2.231-1.24h2.2a.934.934 0 0 0 .93-.967M48.701 32.612c-.175-.002-.277-.18-.178-.31.45-.588 1.32-.981 2.317-.968.996.012 1.856.428 2.29 1.028.095.132-.011.307-.187.305l-4.242-.055M52.949 34.054c.175.003.277.18.178.31-.45.589-1.32.982-2.317.969-.996-.013-1.856-.428-2.29-1.028-.095-.133.011-.307.187-.305l4.242.054M26.961 32.164c-.176-.007-.272-.18-.169-.3.468-.55 1.35-.9 2.347-.86.997.039 1.844.459 2.26 1.044.091.129-.02.292-.197.285l-4.24-.17M31.22 33.836c.175.007.273.18.168.3-.466.55-1.349.9-2.346.86-.996-.039-1.844-.459-2.26-1.044-.091-.129.021-.292.196-.285l4.243.17"/>
            <path fill="#5E5E70" d="M15.048 48.757c1.055 0 1.915.857 1.915 1.91a1.915 1.915 0 0 1-3.83 0c0-1.053.858-1.91 1.915-1.91zm0 4.243a2.34 2.34 0 0 0 2.34-2.333 2.34 2.34 0 0 0-2.34-2.334 2.34 2.34 0 0 0-2.342 2.334A2.34 2.34 0 0 0 15.048 53zM16.665 44.872c-.291 1.704-.205 2.858.246 3.198.055.042.204.154.588.154.431 0 1.224-.146 2.608-.806a5.984 5.984 0 0 0-3.442-2.546zm-.023 3.55c-.315-.238-.951-.948-.33-4.089a6.467 6.467 0 0 1 4.42 3.27c-1.636.833-2.625 1.064-3.233 1.064-.473 0-.716-.14-.857-.244zM81.755 57.083c3.646 0 6.603-2.948 6.603-6.583 0-3.635-2.957-6.583-6.603-6.583-3.647 0-6.603 2.948-6.603 6.583 0 3.635 2.956 6.583 6.603 6.583zm0-15.083c4.709 0 8.526 3.806 8.526 8.5S86.464 59 81.755 59c-4.71 0-8.527-3.806-8.527-8.5s3.818-8.5 8.527-8.5z"/>
            <path fill="#CED5DC" d="M86.825 47.645c-1.181.599-2.107.902-2.753.902-.385 0-.572-.11-.678-.192-.651-.503-.52-2.146-.273-3.52a5.861 5.861 0 0 1 3.704 2.81zm-6.437-2.81c.248 1.374.379 3.017-.272 3.52-.107.082-.293.192-.679.192-.646 0-1.572-.303-2.753-.902a5.86 5.86 0 0 1 3.704-2.81zm-4.488 5.4c1.348.209 2.905.62 3.157 1.41.25.781-.748 2.031-1.695 2.996a6.039 6.039 0 0 1-1.462-4.407zm11.71 0a6.038 6.038 0 0 1-1.462 4.406c-.947-.965-1.945-2.215-1.696-2.996.252-.79 1.809-1.201 3.157-1.41zm-3.584 5.96c-.72.31-1.483.466-2.271.466a5.712 5.712 0 0 1-2.272-.466c.608-1.226 1.465-2.59 2.272-2.59.807 0 1.664 1.364 2.271 2.59zm.902.676c.096-.051.188-.104.28-.158l.01-.007c.086-.05.175-.107.264-.166l.01-.006c.085-.057.171-.117.256-.18l.007-.005c.083-.06.168-.126.25-.193l.007-.005a6.974 6.974 0 0 0 .473-.421l.014-.014a7.047 7.047 0 0 0 2.068-5.821v-.005a7.006 7.006 0 0 0-1.764-3.958 6.768 6.768 0 0 0-3.684-2.126l-.006-.002h-.005a6.729 6.729 0 0 0-.664-.102l-.017-.002a7.038 7.038 0 0 0-.672-.033 6.744 6.744 0 0 0-.673.033l-.016.002c-3.197.326-5.772 2.93-6.124 6.191a7.048 7.048 0 0 0 2.075 5.83l.006.006a7.476 7.476 0 0 0 .475.422l.007.006c.082.066.165.13.248.191l.013.01c.081.06.167.12.252.176l.011.007c.09.06.178.115.263.166l.008.005c.095.056.186.108.276.156l.007.004c.973.52 2.07.795 3.172.795 1.102 0 2.199-.275 3.173-.796z"/>
            <path fill="#5E5E70" d="M81.587 48.757c1.057 0 1.916.857 1.916 1.91s-.86 1.91-1.916 1.91a1.915 1.915 0 0 1-1.915-1.91c0-1.053.86-1.91 1.915-1.91zm0 4.243a2.34 2.34 0 0 0 2.341-2.333 2.34 2.34 0 0 0-2.34-2.334 2.34 2.34 0 0 0-2.341 2.334A2.34 2.34 0 0 0 81.587 53zM14.88 57.083c3.646 0 6.603-2.948 6.603-6.583 0-3.635-2.957-6.583-6.603-6.583-3.647 0-6.603 2.948-6.603 6.583 0 3.635 2.956 6.583 6.603 6.583zm0-15.083c4.709 0 8.526 3.806 8.526 8.5S19.59 59 14.88 59c-4.71 0-8.527-3.806-8.527-8.5S10.171 42 14.88 42z"/>
            <path fill="#5E5E70" d="M8.694 50.667c0 3.681 2.994 6.666 6.687 6.666 3.694 0 6.688-2.985 6.688-6.666 0-3.682-2.994-6.667-6.688-6.667-3.693 0-6.687 2.985-6.687 6.667"/>
            <path fill="#CED5DC" d="M19.95 47.645c-1.181.599-2.107.902-2.753.902-.385 0-.572-.11-.678-.192-.651-.503-.52-2.146-.273-3.52a5.861 5.861 0 0 1 3.704 2.81zm-6.437-2.81c.248 1.374.379 3.017-.272 3.52-.107.082-.293.192-.679.192-.646 0-1.572-.303-2.753-.902a5.86 5.86 0 0 1 3.704-2.81zm-4.488 5.4c1.348.209 2.905.62 3.157 1.41.25.781-.748 2.031-1.695 2.996a6.039 6.039 0 0 1-1.462-4.407zm11.71 0a6.038 6.038 0 0 1-1.462 4.406c-.947-.965-1.945-2.215-1.696-2.996.252-.79 1.809-1.201 3.157-1.41zm-3.584 5.96c-.72.31-1.483.466-2.271.466a5.712 5.712 0 0 1-2.272-.466c.608-1.226 1.465-2.59 2.272-2.59.807 0 1.664 1.364 2.271 2.59zm.902.676c.096-.051.188-.104.28-.158l.01-.007c.086-.05.175-.107.264-.166l.01-.006c.085-.057.171-.117.256-.18l.007-.005c.083-.06.168-.126.25-.193l.007-.005a6.974 6.974 0 0 0 .473-.421l.014-.014a7.047 7.047 0 0 0 2.068-5.821v-.005a7.006 7.006 0 0 0-1.764-3.958 6.768 6.768 0 0 0-3.684-2.126l-.006-.002h-.005a6.729 6.729 0 0 0-.664-.102l-.017-.002a7.038 7.038 0 0 0-.672-.033 6.744 6.744 0 0 0-.673.033l-.016.002c-3.197.326-5.772 2.93-6.124 6.191a7.048 7.048 0 0 0 2.075 5.83l.006.006a7.476 7.476 0 0 0 .475.422l.007.006c.082.066.165.13.248.191l.013.01c.081.06.167.12.252.176l.011.007c.09.06.178.115.263.166l.008.005c.095.056.186.108.276.156l.007.004c.973.52 2.07.795 3.172.795 1.102 0 2.199-.275 3.173-.796z"/>
            <path fill="#5E5E70" d="M14.712 48.757c1.057 0 1.916.857 1.916 1.91s-.86 1.91-1.916 1.91a1.915 1.915 0 0 1-1.915-1.91c0-1.053.86-1.91 1.915-1.91zm0 4.243a2.34 2.34 0 0 0 2.341-2.333 2.34 2.34 0 0 0-2.34-2.334 2.34 2.34 0 0 0-2.341 2.334A2.34 2.34 0 0 0 14.712 53z"/>
            <path fill="#5E5E70" d="M9.983 55.148l.001.002c.072.075.146.148.221.22l.003.003c.075.071.151.141.23.21l.004.003c.078.068.157.133.238.197l.007.006c.08.063.161.124.244.184l.01.007c.083.059.166.116.252.172l.01.007c.086.055.172.108.26.16l.01.006c.09.051.18.1.27.148l.007.004c.936.488 2 .766 3.13.766s2.194-.278 3.13-.767l.006-.003a6.61 6.61 0 0 0 .27-.15l.01-.004c.088-.052.175-.106.26-.161l.01-.006c.086-.056.17-.114.254-.173l.007-.005c.084-.06.166-.123.247-.186l.004-.004c.082-.064.162-.131.24-.199l.003-.002a6.894 6.894 0 0 0 .455-.434 6.706 6.706 0 0 0 1.825-5.392v-.002a6.755 6.755 0 0 0-5.38-5.864 6.777 6.777 0 0 0-.66-.1l-.022-.001a7.06 7.06 0 0 0-.66-.033 6.868 6.868 0 0 0-.663.033l-.017.001a6.755 6.755 0 0 0-6.04 5.964l-.001.002a6.706 6.706 0 0 0 1.825 5.392zM7.735 49.71v-.006l.001-.002a7.17 7.17 0 0 1 2.085-4.293 7.207 7.207 0 0 1 4.335-2.04l.022-.001a7.315 7.315 0 0 1 1.4 0l.025.002c.229.022.461.057.69.102l.01.002.011.003a7.14 7.14 0 0 1 3.86 2.176 7.093 7.093 0 0 1 1.85 4.05v.007a7.12 7.12 0 0 1-1.896 5.684l-.001.004-.045.045a7.536 7.536 0 0 1-.218.22l-.01.009-.007.006-.014.013a7.447 7.447 0 0 1-.233.212l-.002.002-.002.001a7.43 7.43 0 0 1-.253.21l-.006.005a7.083 7.083 0 0 1-.261.197l-.003.001-.002.002a7.579 7.579 0 0 1-.273.186l-.01.007a7.06 7.06 0 0 1-.278.17l-.006.005-.003.001a7.53 7.53 0 0 1-.287.16h-.003l-.006.003a7.218 7.218 0 0 1-3.325.814 7.22 7.22 0 0 1-3.328-.814l-.008-.005a7.214 7.214 0 0 1-.285-.157l-.01-.006a7.607 7.607 0 0 1-.277-.17l-.004-.003-.004-.003-.002-.001-.002-.001c-.09-.058-.179-.12-.267-.183l-.01-.007a7.33 7.33 0 0 1-.26-.196l-.003-.002-.003-.002a7.117 7.117 0 0 1-.254-.21l-.008-.008a7.157 7.157 0 0 1-.237-.216l-.004-.003-.004-.004a7.352 7.352 0 0 1-.23-.23l-.005-.005a7.123 7.123 0 0 1-1.94-5.73zM70.273 31l-45.559-1.677c-.881-.033-1.498-.893-1.254-1.75.581-2.045 1.941-5.399 4.844-6.887 4.324-2.218 19.24-1.094 21.916-.864 2.578.222 8.432.477 20.442 10.11.448.359.182 1.089-.389 1.068"/>
            <path fill="#69697C" d="M55.897 21.694c2.585 1.099 5.575 1.64 12.318 7.567-9.646-1.34-12.014-1.214-22.96-6.261.447-.263-.517-2.17 0-2.333 3.005-.954 6.552-.611 10.642 1.027z"/>
            <path fill="#4B4D5E" d="M43.543 28.785l-.716-8.691a1.189 1.189 0 0 0-.361-.76c1.763.056 3.39.142 4.697.225-.303.237-.49.616-.455 1.035l.71 8.613c.025.316.175.595.398.793l-4.739-.172c.31-.237.5-.62.466-1.043"/>
            <path fill="#57596E" d="M42.8 19.668v-.001c1.46.05 2.817.119 3.963.188a1.19 1.19 0 0 0-.017.318l.4 4.827a150.085 150.085 0 0 1-3.93-.315l-.416-5.017"/>
            <path fill="#585C5E" d="M70.482 29.388l1.666.716c.395.17.535.667.29 1.025l-.17.245a.663.663 0 0 1-.907.187l-1.497-.962a.688.688 0 0 1-.313-.547c-.024-.504.476-.86.931-.664"/>
            <path fill="url(#j)" d="M29.382 13.525c-.671-.034-1.125-.893-.903-1.708.356-1.31 1.28-2.226 2.357-2.335l1.402-.143c.99-.1 1.753 1.102 1.477 2.329l-.153.68c-.182.807-.768 1.35-1.42 1.317l-2.76-.14z" transform="matrix(-1 0 0 1 99.31 17.667)"/>
            <path fill="#F65B7D" d="M66.146 28.842l.143.626c.17.743.72 1.243 1.331 1.212l2.585-.129a.777.777 0 0 0 .348-.104c-.153.416-.478.724-.881.744l-2.809.14c-.665.034-1.261-.51-1.446-1.317l-.156-.68c-.27-1.183.442-2.344 1.398-2.334-.44.393-.68 1.113-.513 1.842z"/>
            <path fill="#00B0B2" d="M122.548 0a7.858 7.858 0 0 1 7.858 7.858v38.95a7.858 7.858 0 1 1-15.716 0V7.859A7.858 7.858 0 0 1 122.549 0z"/>
            <ellipse cx="129.57" cy="17.667" fill="#2A2C2D" rx="1" ry="2.667"/>
            <ellipse cx="129.403" cy="17.667" fill="#575C5E" rx="1" ry="2.333"/>
            <path stroke="#353A3D" stroke-linecap="round" stroke-linejoin="round" stroke-width="3" d="M113.472 16.667s-.919 3.926-1.79 8.637"/>
            <path stroke="#353A3D" stroke-linejoin="round" stroke-width="3" d="M129.503 17.835c1.05 0 1.362 1.71 1.362 3.312"/>
            <rect width="15.716" height="54" x="113.019" fill="url(#k)" rx="4"/>
            <g>
                <path fill="#D4EDA7" d="M124.237 55.661c.682-.165 1.874.005 1.82-1.109-.053-1.003-1.699-1.731-2.55-1.957.568-.221 1.082-.888.8-1.557-.396-.837-1.987-.897-2.61-1.456-.68-.559-.17-.112-.339-.725-.788-2.62-1.985-1.342-4.256-1.738.518-2.45-3.636-.121-4.488-.068-.398 0-.795-.392-1.25-.393-.454-.001-.966.276-1.364.553-.74.555-.971 1.892-1.597 2.169-.398.166-.681-.336-1.193.052-.228.222-.4.835-.515 1.113-.228.445-.4 1.113-.856 1.335-.341.166-.795-.114-1.193.052-.683.388-.4.946-.46 1.614-.001.669.057.446-.228.78-.285.277-.74.388-.968.777-.353.583-.407 1.22-.262 1.837l22.185.06c-.264-.539-.566-1.033-.676-1.339"/>
                <path fill="#D4EDA7" d="M133.265 55.661c.682-.165 1.874.005 1.82-1.109-.053-1.003-1.699-1.731-2.55-1.957.569-.221 1.081-.888.8-1.557-.396-.837-1.987-.897-2.61-1.456-.68-.559-.17-.111-.339-.725-.788-2.62-1.985-1.342-4.256-1.738.518-2.45-3.636-.121-4.488-.068-.398 0-.795-.392-1.25-.393-.454-.001-.966.276-1.364.553-.74.555-.971 1.892-1.597 2.169-.398.166-.68-.336-1.193.052-.228.222-.4.835-.515 1.113-.228.445-.4 1.113-.856 1.335-.341.166-.795-.114-1.193.052-.683.388-.4.946-.459 1.614-.002.669.056.446-.23.78-.284.277-.739.388-.967.777-.352.583-.407 1.22-.261 1.837l22.184.06c-.264-.539-.566-1.033-.676-1.339"/>
                <path fill="url(#l)" d="M26.139 9.661c.604-.165 1.66.005 1.613-1.109-.048-1.003-1.506-1.732-2.26-1.957.504-.221.958-.888.708-1.557-.35-.837-1.758-.897-2.31-1.456-.603-.559-.152-.112-.301-.725-.698-2.62-1.758-1.342-3.77-1.738.46-2.45-3.22-.121-3.975-.068-.352 0-.704-.392-1.106-.393-.403-.001-.856.276-1.21.553-.655.555-.86 1.892-1.413 2.169-.353.166-.603-.336-1.057.052-.202.222-.355.835-.456 1.113-.202.445-.355 1.113-.758 1.335-.302.166-.704-.114-1.057.052-.605.388-.355.946-.407 1.614-.001.669.05.446-.203.78-.252.277-.655.388-.857.777-.312.583-.36 1.22-.231 1.838l19.65.059c-.235-.538-.503-1.033-.6-1.339" transform="translate(102.653 46)"/>
            </g>
            <g>
                <path fill="#FFCBBB" d="M67.65 64.75c.03-.922.045-1.85.055-2.779.013-1.216.013-2.975.005-4.2-.01-1.048-.023-2.098-.041-3.147 1.402.03 2.803.035 4.2-.05-.166 5.361-1.925 9.694-2.578 13.253-.018.092-.036.185-.052.277l-.026.2.044.043c.024.026.042.054.01.06l1.019.201c.135.031.228.287.228.427a.292.292 0 0 1-.086.21.283.283 0 0 1-.204.088h-2.589a.136.136 0 0 1-.134-.142l.028-.844c.042-1.151.104-2.975.122-3.597"/>
                <path fill="#4F5A60" d="M67.5 69.177a.149.149 0 0 0 .147.156h2.814a.307.307 0 0 0 .223-.096.321.321 0 0 0 .093-.23c0-.154-.102-.434-.248-.468l-1.107-.22c.034-.007.014-.037-.011-.066h-1.88l-.03.924"/>
                <path fill="#FFCBBB" d="M61.312 69.191a.137.137 0 0 0 .137.142h2.64a.292.292 0 0 0 .21-.087.287.287 0 0 0 .086-.21c0-.14-.095-.394-.232-.424l-1.039-.201c.032-.005.013-.033-.01-.06l-.045-.042.026-.2c.016-.09.034-.183.053-.275.465-2.458.996-4.9 1.435-7.368.156-.878.301-1.758.433-2.639a64.65 64.65 0 0 0 .293-2.072c.006-.035.009-.07.014-.103a50.996 50.996 0 0 0 .124-1.072c.037-.336.072-.672.1-1.008.035-.37.064-.74.088-1.11.008-.102.016-.606.02-.71a3.86 3.86 0 0 0 .011-.178l.024-.036v-.69l-.053-.034c-.153.06-.055-.07-.042-.134-.544-.419-1.078-.447-1.646-.838-.093-.063-.188-.119-.278-.182l-.05-.036-.053-.021a8.245 8.245 0 0 0-.684-.268c.008.008-.28-.067-.304-.071a8.398 8.398 0 0 0-.877-.09.288.288 0 0 0-.302.29c.016 1.009.037 2.021.056 3.036.008.47.015.942.026 1.413.021 1.304.04 2.61.05 3.914.01 1.219.01 2.97-.002 4.18-.01.925-.027 1.847-.056 2.765a770.3 770.3 0 0 1-.153 4.42"/>
                <path fill="#4F5A60" d="M61.312 69.177a.149.149 0 0 0 .146.156h2.815a.307.307 0 0 0 .222-.096.321.321 0 0 0 .093-.23c0-.154-.101-.434-.248-.468l-1.107-.22c.034-.007.014-.037-.011-.066h-1.88l-.03.924"/>
                <path fill="#9EA3A8" d="M61.366 54.933l-.414-10.791a6.184 6.184 0 0 1 .581-2.861l1.025-2.189s6.235-.359 7.069-.359l1.36 7.471.003.01c.194.84.57 4.885 1.243 8.72H61.366"/>
                <path fill="#4F5A60" d="M64.323 26.02c.323-.303.722-.489 1.151-.607.551.457 1.165.791 1.83 1.094l-.152.067c.01.711.554 1.417 1.211 1.783.823.456 1.792.557 2.694.825 1.108.328 1.662 1.446 1.518 2.536-.204 1.527-1.567 2.284-3.03 2.332a5.97 5.97 0 0 1-4.226-1.583 5.817 5.817 0 0 1-1.822-4.082c-.019-.859.193-1.776.826-2.366"/>
                <path fill="#275995" d="M67.224 28.38a2.2 2.2 0 0 1-3.087 0 2.14 2.14 0 0 1 0-3.054 2.199 2.199 0 0 1 3.087 0 2.14 2.14 0 0 1 0 3.055"/>
                <path fill="#FFCBBB" d="M67.865 27.034c0 1.093-.897 1.98-2.003 1.98a1.998 1.998 0 0 1-2.002-1.98 1.991 1.991 0 0 1 2.128-1.976 1.988 1.988 0 0 1 1.877 1.976"/>
                <path fill="#4F5A60" d="M66.408 24.8a3.744 3.744 0 0 1-.624-.107.711.711 0 0 1-.515.039l-.792.57c-.585.34-.981.993-.981 1.746 0 .59.245 1.12.632 1.486.086.1-.088.4.016.48l1.026-2.816 1.184-1.22c.044-.056-.154.142-.12.08l.174-.259"/>
                <path fill="#FFCBBB" d="M63.86 26.853l.02 4.062 1.8.618-.047-3.115-1.773-1.565"/>
                <path fill="#E3A8C2" d="M65.68 26.853c0 .398-.324.72-.728.72a.725.725 0 0 1-.728-.72c0-.397.327-.72.728-.72.404 0 .728.323.728.72"/>
                <path fill="#4F5A60" d="M63.657 28.797c.373-.644 1.064-.993 1.734-1.25.67-.257 1.744-.473 2.283-.967.349-.32.62-.8.54-1.283-.072-.46-.465-.82-.898-.905-.432-.085-1.25-.115-1.599.171-.22.182-.401.602-.621.783-.502.413-1.214.608-1.486 1.214-.339.748.205 1.653-.002 2.453l.049-.216"/>
                <path fill="#FFCBBB" d="M70.82 37.666c.168.397.438.733.758.94l4.119 1.872c.208.108.36.368.366.626v.01c.008.307-.185.512-.436.462l-5.024-.931c-.448-.087-.88-.444-1.15-.948 0 0-2.782-4.984-2.995-5.193l-.008-.028-.001-.011c-.01-.1-.034-.202-.047-.302-.011-.092-.015-.222-.017-.286.014-.1.032-.218.022-.297l.032-.105.004-.014c.001.032.034.004.059-.125.071-.096.142-.193.217-.288l.02-.02c.108-.091.111-.097.082-.075l.048-.043c.125-.104.256-.2.389-.29.366-.25.753-.466 1.146-.666l2.416 5.712"/>
                <path fill="#FFFFFE" d="M62.575 39.453l-1.907-6.047c-.346-1.096.415-2.23 1.547-2.31l3.945-.275c2.014-.14 3.679 1.567 3.513 3.604l-.375 4.68-6.723.348"/>
                <path fill="#01B0B1" d="M68.076 40.893h2.773c.08 0 .15-.043.187-.111l2.265-4.267a.207.207 0 0 0-.187-.302H70.34c-.079 0-.15.043-.187.112L67.89 40.59a.207.207 0 0 0 .187.302"/>
                <path fill="#FFFFFE" d="M71.14 37.293c0 .2.163.36.363.36a.362.362 0 0 0 .366-.36.362.362 0 0 0-.366-.36.36.36 0 0 0-.362.36"/>
                <path fill="#FFCBBB" d="M63.697 32.823l.23 4.394a1.258 1.258 0 0 0 1.14 1.183l4.748.465a.659.659 0 0 1 .598.664.66.66 0 0 1-.662.644H63.2a1.521 1.521 0 0 1-1.516-1.332l-.725-5.78a1.363 1.363 0 0 1 1.307-1.526 1.37 1.37 0 0 1 1.431 1.288"/>
            </g>
            <rect width="4.013" height="10" x="115.025" y="23.667" fill="#2A2C2D" rx="2.006"/>
            <rect width="3.678" height="9.333" x="115.359" y="24.333" fill="#575C5E" rx="1.839"/>
            <path fill="#FFF" d="M120.574 3.798L118.723 7.8a.214.214 0 0 0 .018.211.232.232 0 0 0 .191.103l1.61.004-.007 2.448c0 .105.075.196.18.218a.229.229 0 0 0 .258-.127l1.852-4a.217.217 0 0 0-.018-.212.229.229 0 0 0-.192-.102l-1.61-.005.008-2.448a.224.224 0 0 0-.181-.218.229.229 0 0 0-.258.126"/>
            <rect width="11.369" height="7" x="115.359" y="13.667" fill="#E8EFF5" rx="1"/>
            <rect width="5.684" height="4" x="120.041" y="15" fill="#CED5DC" rx="1"/>
            <rect width="4.013" height="10" x="122.716" y="23.667" fill="#2A2C2D" rx="2.006"/>
            <rect width="3.678" height="9.333" x="123.05" y="24.333" fill="#575C5E" rx="1.839"/>
            <rect width="2.675" height="6.333" x="115.694" y="26" fill="#FFD18B" rx="1.337"/>
            <path stroke="#353A3D" stroke-linecap="round" stroke-linejoin="round" d="M112.016 23.619l-.324 1.67c-1.44 8.383-1.016 12.882 1.273 13.498 3.434.923 4.066-4.43 4.066-5.051"/>
            <rect width="2.006" height="4" x="116.028" y="29.667" fill="#FFD18B" rx="1.003"/>
            <g>
                <path stroke="#353A3D" stroke-linecap="round" stroke-linejoin="round" d="M130.869 20.304c-.094 18.047.856 28.966 2.848 32.759 2.988 5.69-3.767 5.558-13.224 5.73-9.456.172-9.623-17.184-17.072-19.132"/>
                <path fill="#FFD18B" d="M100.06 37.356a1.422 1.422 0 0 1 1.06.022l1.42.602a1.58 1.58 0 0 1 .866 1.997 1.427 1.427 0 0 1-1.898.824l-1.267-.538a1.529 1.529 0 0 1-.035.01l-2.902.833a1.5 1.5 0 0 1-.827-2.884l2.902-.832c.23-.066.462-.074.682-.034z"/>
            </g>
        </g>
    </g>
</svg>
