<svg xmlns="http://www.w3.org/2000/svg" xmlns:xlink="http://www.w3.org/1999/xlink" width="640" height="480" viewBox="0 0 640 480">
    <defs>
        <linearGradient id="a" x1="96.354%" x2="67.945%" y1="50%" y2="49.792%">
            <stop offset="0%" stop-color="#F8FCFF"/>
            <stop offset="100%" stop-color="#E4EBF2"/>
        </linearGradient>
        <path id="b" d="M28.634 6.681l-1.233-.003.011-4.028-.119-.001.005-1.313a.048.048 0 0 0-.047-.047L4.803 1.227c-.022 0-.045.024-.045.047 0 .026.023.046.044.046l.411.003-.001.15-.41-.001c-.021 0-.044.024-.044.049 0 .028.022.045.044.046l.41.001-.001.156-.409-.001c-.022 0-.044.018-.044.042 0 .023.022.05.044.05l.409.001v.15l-.41-.001c-.022 0-.044.025-.044.05 0 .026.022.043.044.043l.41.001-.002.156-.408-.002a.047.047 0 0 0-.045.045c0 .032.022.049.045.049l.408.002-.001.153-.408-.001c-.022 0-.044.017-.045.048 0 .023.023.048.045.048h.408v.033l-3.859-.011-.504 184.398 30.812.085L32.165.999 28.65.99l-.016 5.691zM5.305 1.473l.001-.15 1.738.004-.001.15-1.738-.004zm1.832.004v-.15l1.742.005v.151l-1.742-.006zm1.83.006l.001-.151 1.743.005-.001.15-1.743-.004zm1.837.004v-.15l1.736.005v.15l-1.736-.005zm1.829.007v-.152l1.741.005v.15l-1.741-.003zm1.834.004v-.151l1.742.004v.152l-1.742-.005zm1.835.005v-.151l1.74.005v.151l-1.74-.005zm1.83.005v-.15l1.741.004v.151l-1.741-.005zm1.833.005l.001-.151 1.743.006-.001.15-1.743-.005zm1.832.005v-.15l1.743.004-.001.15-1.742-.004zm1.833.004v-.15l1.742.005-.001.151-1.741-.006zm1.835.006v-.151l1.738.005v.15l-1.738-.004zm-20.16.196v-.156l1.738.005v.156l-1.738-.005zm1.831.005v-.156l1.743.005v.155l-1.743-.004zm1.831.006v-.157l1.743.005v.155l-1.743-.003zm1.836.004v-.156l1.737.005-.001.156-1.736-.005zm1.83.005v-.156l1.74.005v.156l-1.74-.005zm1.833.005l.001-.155 1.741.004v.156l-1.742-.005zm1.835.005l.001-.155 1.74.004v.156l-1.741-.005zm1.831.005v-.156l1.741.006-.001.155-1.74-.005zm1.832.005l.001-.155 1.743.004-.001.156-1.743-.005zm1.832.005v-.156l1.743.005v.155l-1.743-.004zm1.833.005v-.156l1.742.005v.155l-1.742-.004zm1.835.005l.001-.156 1.738.005v.156l-1.739-.005zm-20.16.187v-.15l1.739.004v.151l-1.739-.005zm1.831.005l.001-.151 1.742.005v.151l-1.743-.005zm1.831.005l.001-.151 1.742.005v.15l-1.743-.004zm1.836.005l.001-.15 1.736.004v.15l-1.737-.004zm1.83.005v-.15l1.741.005-.001.15-1.74-.005zm1.833.005l.001-.15 1.742.005-.002.15-1.741-.005zm1.836.005v-.15l1.74.005v.15l-1.74-.005zm1.83.005l.001-.15 1.74.004v.151l-1.741-.005zm1.833.005v-.151l1.743.006v.15l-1.743-.005zm1.831.005l.001-.15 1.742.004v.151l-1.743-.005zm1.833.005l.001-.151 1.741.005v.15l-1.742-.004zm1.835.006l.001-.151 1.739.004-.001.151-1.739-.004zm-20.16.193l.001-.155 1.739.004-.001.156-1.739-.005zm1.832.005v-.156l1.743.006-.001.154-1.742-.004zm1.83.004l.001-.154 1.743.004-.002.156-1.742-.006zm1.837.006v-.156l1.736.005v.155l-1.736-.004zm1.829.004l.001-.155 1.74.005v.156l-1.741-.006zm1.834.006v-.156l1.741.005v.155l-1.741-.004zm1.835.005v-.156l1.741.005-.001.155-1.74-.004zm1.831.005v-.155l1.74.003v.157l-1.74-.005zm1.832.005l.001-.156 1.743.006-.002.155-1.742-.005zm1.832.005v-.155l1.743.004-.001.156-1.742-.005zm1.833.005v-.156l1.742.006-.001.154-1.741-.004zm1.835.004v-.154l1.739.004v.156l-1.739-.006zm-20.16.193V2.31l1.739.004v.153l-1.739-.005zm1.831.005v-.153l1.743.005v.153l-1.743-.005zm1.831.006v-.154l1.742.005v.152l-1.742-.003zm1.836.004v-.153l1.737.005-.001.154-1.736-.006zm1.83.006v-.154l1.74.005v.153l-1.74-.004zm1.833.004l.001-.153 1.741.005v.154l-1.742-.006zm1.834.006l.002-.154 1.74.005-.001.153-1.741-.004zm1.832.004v-.153l1.741.005-.001.153-1.74-.005zm1.832.005l.001-.152 1.742.003-.001.154-1.742-.005zm1.832.005v-.152l1.743.004-.001.153-1.742-.005zm1.833.005v-.153l1.742.005v.153l-1.742-.005zm1.835.006v-.154l1.739.005v.153l-1.739-.004zM5.301 2.59v-.033l1.74.006v.031l-1.74-.004zm1.833.004v-.031l1.742.004V2.6l-1.742-.006zm1.829.006v-.033l1.743.006v.031L8.963 2.6zm1.838.004v-.03l1.736.003v.033l-1.736-.006zm1.829.006v-.032l1.741.005v.031L12.63 2.61zm1.834.004v-.031l1.741.005v.032l-1.741-.006zm1.834.006v-.032l1.741.004v.032l-1.741-.004zm1.832.005v-.033l1.74.006v.032l-1.74-.005zm1.832.005v-.032l1.742.004v.033l-1.742-.005zm1.832.005v-.033l1.742.006v.031l-1.742-.004zm1.833.004v-.031l1.74.004v.033l-1.74-.006zm1.835.006v-.032l1.739.004v.032l-1.739-.004z"/>
        <linearGradient id="c" x1="38.505%" x2="60.691%" y1="-40.286%" y2="60.481%">
            <stop offset="0%" stop-color="#E4EBF2"/>
            <stop offset="0%" stop-color="#E6EDF3"/>
            <stop offset="100%" stop-color="#F8FCFF"/>
        </linearGradient>
        <path id="e" d="M8.206.873l-.012 4.558-1.101-.002.001-.582h-.14l-.01 3.32-1.101-.003.001-.588-.14-.001-.009 3.281-1.117-.004-.001.509-1.574 2.619-.241 88.301-1.939 5.032-.299 109.819 33.39.092.3-109.82-1.911-5.043.241-88.3-1.559-2.628.002-.509-1.116-.003.01-3.279h-.14l-.002.587-1.102-.003.008-3.318-.14-.001-.001.579-1.105-.002.013-4.559h-.14l-.001.581-1.372-.004.002-.581h-.141v.581L9.858 1.459 9.86.877h-.14l-.001.581-1.373-.004.001-.581z"/>
        <linearGradient id="f" x1="40.162%" x2="59.15%" y1="-40.286%" y2="60.481%">
            <stop offset="0%" stop-color="#E4EBF2"/>
            <stop offset="0%" stop-color="#E6EDF3"/>
            <stop offset="100%" stop-color="#F8FCFF"/>
        </linearGradient>
        <linearGradient id="h" x1="9.858%" x2="58.646%" y1="32.81%" y2="58.811%">
            <stop offset="0%" stop-color="#D4EDA7"/>
            <stop offset="100%" stop-color="#B0CF7A"/>
        </linearGradient>
        <path id="i" d="M12.816.953l-.004 1.245-.507.08-.718-.001V2.01l-.389-.001v.267l-5.701-.017-1.638-.275-2.636.356-.003.821-.365-.001-.008 2.73h.277l-.002.646H.846v.322l.275.001-.002.652-.275-.001-.001.323.276.001-.003.65H.84l-.001.319h.277l-.002.653-.277-.001v.324l.276.002-.002.647-.275-.001-.001.324h.275l-.001.651-.276-.001-.001.322.276.001-.001.651H.829l-.001.32.277.002-.002.65-.275-.001-.001.323.275.001-.002.65-.275-.001-.001.323.275.001v.651l-.277-.001-.001.322h.277l-.002.648-.277-.001-.001.323.277.001-.003.653-.275-.001-.001.322h.275l-.002.649-.275-.001-.001.323.276.001-.001.651-.277-.002-.001.326.277.001-.002.649-.275-.001-.001.319.275.001-.003.653-.275-.001-.001.323.276.001-.001.652-.277-.001-.001.321.277.001-.002.648-.276-.001-.001.321.276.001-.002.652H.799l-.001.326h.275l-.002.649-.276-.001-.001.32.277.001-.002.651-.277-.001v.323l.276.001-.002.651-.276-.002v.32l.275.001-.002.652-.275-.001-.001.324h.275v.654l-.277-.001-.001.317h.277l-.01 3.422H.775L.616 90.733l15.464.042.158-58.08-.275-.001.008-3.424.277.001.001-.316h-.276l.002-.654.276.001.001-.323-.277-.001.002-.652.276.001.001-.319-.276-.001.001-.653.276.001.001-.323-.276-.001.002-.649h.276l.002-.319h-.277l.002-.651.277.001v-.325l-.276-.001.002-.651h.275l.001-.322h-.276l.002-.648.276.001.001-.322h-.276l.002-.653.276.001.002-.323-.278-.001.003-.651.276.001v-.32l-.275-.001.001-.65h.276l.001-.325h-.276l.002-.65h.276l.001-.322-.276-.001.001-.648.277.001v-.322l-.276-.001.003-.653.275.001.001-.324h-.276l.002-.648.276.001.001-.321-.276-.001.001-.651h.277l.001-.322-.277-.001.002-.65.276.001v-.322l-.275-.001.001-.653.276.001.002-.32-.277-.001.003-.652h.276l.001-.321-.276-.001.001-.65.277.001v-.324l-.276-.002.002-.647.275.001.001-.324h-.275l.001-.652.276.001.001-.321-.276-.001.002-.65.277.001.001-.324h-.277l.002-.65.275.001.001-.323-.275-.001.001-.647h.276l.008-2.727-.363-.001.001-.822-1.861-.346.003-1.08h-.166l-.002 1.061-.95.155.003-1.218z"/>
        <linearGradient id="j" x1="37.6%" x2="61.533%" y1="-40.286%" y2="60.481%">
            <stop offset="0%" stop-color="#E4EBF2"/>
            <stop offset="0%" stop-color="#E6EDF3"/>
            <stop offset="100%" stop-color="#F8FCFF"/>
        </linearGradient>
        <path id="l" d="M40.412.985a.843.843 0 0 0 .708.822l-.009 3.212-24.739 10.57-.006 2.089c-.235.052-.398.136-.399.238 0 .095.163.176.397.23l-.002 1.006c-.236.053-.399.131-.4.234 0 .097.163.176.398.223l-.002 1.016c-.235.05-.399.135-.399.227 0 .102.163.182.397.231l-.003 1.009c-.234.054-.398.13-.398.231 0 .095.163.185.397.233l-.002 1.01c-.235.047-.399.129-.399.227s.163.181.398.235l-.003 1.004c-.235.05-.399.133-.399.237 0 .095.163.172.397.224l-.001.143 1.717.004-.014 5.388-1.717-.006-.005 2.068c-.235.053-.398.138-.399.239 0 .092.163.173.397.227l-.003 1.01c-.234.046-.398.129-.398.23 0 .102.163.184.397.233l-.003 1.01c-.235.04-.398.129-.398.23 0 .096.162.176.397.222l-.002 1.009c-.235.053-.399.139-.399.236 0 .095.163.185.397.227l-.003 1.015c-.234.044-.398.131-.398.225 0 .099.163.185.397.233l-.002 1.004c-.236.057-.399.135-.399.236-.001.096.162.185.398.234l-.003 1.003c-.236.053-.399.136-.399.231-.001.1.162.187.397.232l-.06 21.908-2.306-.006-.159 58.283-13.43-.037-.052 18.701 56.994.157.339-124.383L51.4.63 41.395 4.899l.008-3.091a.84.84 0 0 0 .711-.819.847.847 0 0 0-.848-.853.85.85 0 0 0-.854.849"/>
        <linearGradient id="m" x1="-16.845%" x2="112.171%" y1="-40.286%" y2="60.481%">
            <stop offset="0%" stop-color="#E4EBF2"/>
            <stop offset="0%" stop-color="#E6EDF3"/>
            <stop offset="100%" stop-color="#F8FCFF"/>
        </linearGradient>
        <linearGradient id="o" x1="50%" x2="50%" y1="-17.54%" y2="38.053%">
            <stop offset="0%" stop-color="#E4EBF2"/>
            <stop offset="100%" stop-color="#F8FCFF"/>
        </linearGradient>
        <path id="p" d="M48.591 87.662c-1.206 21.895-23.324 17.172-38.999 10.987-6.297-2.484-10.583 4.134-8.88 10.963 10.683 42.838 13.696 45.451 101.35 45.69 87.655.24 55.361-153.072 55.361-153.072L50.649.799s-.604 60.485-2.058 86.863"/>
        <path id="r" d="M48.591 87.662c-1.206 21.895-23.324 17.172-38.999 10.987-6.297-2.484-10.583 4.134-8.88 10.963 10.683 42.838 13.696 45.451 101.35 45.69 87.655.24 55.361-153.072 55.361-153.072L50.649.799s-.604 60.485-2.058 86.863"/>
        <path id="t" d="M158.424.23s24.015 159.685-55.468 159.468c-79.483-.219-90.68-31.287-101.244-52.086-3.187-6.274 2.583-13.447 8.88-10.962 15.676 6.183 37.793 10.907 38.999-10.988C51.045 59.284 40.94 7.487 40.94 7.487L158.424.23z"/>
        <linearGradient id="v" x1="9.95%" x2="50%" y1="12.888%" y2="67.974%">
            <stop offset="0%" stop-color="#F8FCFF"/>
            <stop offset="100%" stop-color="#E4EBF2"/>
        </linearGradient>
        <path id="w" d="M.665 182.006l68.917-.08S31.54 63.441 196.707.982c0 0-202.734 13.73-196.042 181.024"/>
        <linearGradient id="x" x1="30.607%" x2="59.833%" y1="21.082%" y2="50%">
            <stop offset="0%" stop-color="#65A1DB"/>
            <stop offset="100%" stop-color="#3176DE"/>
        </linearGradient>
        <linearGradient id="z" x1="0%" x2="50%" y1="38.514%" y2="61.486%">
            <stop offset="0%" stop-color="#D4EDA7"/>
            <stop offset="100%" stop-color="#B0CF7A"/>
        </linearGradient>
        <linearGradient id="A" x1="30.767%" x2="63.156%" y1="0%" y2="100%">
            <stop offset="0%" stop-color="#FFE49F"/>
            <stop offset="100%" stop-color="#FFC466"/>
        </linearGradient>
        <path id="B" d="M3.457 8.6l-1.933.161c-.556.046-.97.547-.925 1.119.045.573.531.999 1.087.953l3.582-.298 15.961.043c.001-.253.121-.914-.101-1.163-.078-.087-.246-.072-.398-.057-.15.015-.282.03-.291-.057-.529-4.88-4.136-8.66-8.517-8.672h-.021C7.729.629 4.247 4.052 3.457 8.6"/>
        <linearGradient id="C" x1="48.953%" x2="50.139%" y1="35.456%" y2="63.089%">
            <stop offset="0%" stop-color="#E9E9E9"/>
            <stop offset="100%" stop-color="#FFF"/>
        </linearGradient>
        <path id="E" d="M.647 7.128l2.605.008L9.113.047h-.018C3.581.047.647 7.128.647 7.128"/>
        <linearGradient id="F" x1="50.132%" x2="49.897%" y1="7.777%" y2="79.797%">
            <stop offset="0%" stop-color="#E9E9E9"/>
            <stop offset="100%" stop-color="#FFF"/>
        </linearGradient>
        <linearGradient id="H" x1="0%" y1="32.983%" y2="67.017%">
            <stop offset="0%" stop-color="#65A1DB"/>
            <stop offset="100%" stop-color="#006399"/>
        </linearGradient>
        <path id="I" d="M2.898.783L.263 6.666a.328.328 0 0 0 .298.461l2.291.006-.01 3.598c0 .155.107.288.258.321a.325.325 0 0 0 .367-.186l2.635-5.881a.327.327 0 0 0-.025-.312.323.323 0 0 0-.273-.149l-2.291-.007.01-3.599a.327.327 0 0 0-.258-.32.325.325 0 0 0-.367.185"/>
        <linearGradient id="K" x1="49.156%" x2="51.597%" y1="28.88%" y2="99.366%">
            <stop offset="0%" stop-color="#FFDEB3" stop-opacity="0"/>
            <stop offset="100%" stop-color="#FFC466"/>
        </linearGradient>
        <linearGradient id="L" x1="50%" x2="50%" y1="25.101%" y2="100%">
            <stop offset="0%" stop-color="#FFDEB3" stop-opacity="0"/>
            <stop offset="100%" stop-color="#FFDEB3"/>
        </linearGradient>
        <linearGradient id="M" x1="49.524%" x2="50.901%" y1="28.88%" y2="99.366%">
            <stop offset="0%" stop-color="#FFDEB3" stop-opacity="0"/>
            <stop offset="100%" stop-color="#FFC466"/>
        </linearGradient>
    </defs>
    <g fill="none" fill-rule="evenodd">
        <path fill="#D8D8D8" fill-opacity="0" d="M0 0h640v480H0z"/>
        <path fill="#F8FCFF" d="M17 329h599v7H17z"/>
        <ellipse cx="375" cy="374.5" fill="url(#a)" rx="122" ry="17.5"/>
        <path fill="#F8FCFF" d="M584.943 233.682c.287-11.186-.503-21.981-2.407-32.192a129.786 129.786 0 0 0-2.103-9.353 119.596 119.596 0 0 0-2.896-9.397c-3.676-10.369-8.732-19.904-15.163-28.459-5.368-7.144-11.697-13.598-18.958-19.332l-.98-.764a120.544 120.544 0 0 0-14.111-9.357c-15.315-8.72-33.625-14.99-54.506-19.021a276.993 276.993 0 0 0-14.695-2.423c-18.773-2.602-38.286-3.539-57.956-3.364-14.495.13-29.075.873-43.555 2.074-17.314 1.438-34.477 3.53-51.24 6.144a698.125 698.125 0 0 0-37.16 6.815 615.146 615.146 0 0 0-12.012 2.672 572.854 572.854 0 0 0-11.633 2.838c-12.352 3.15-24.32 6.654-35.853 10.584-18.433 6.282-35.754 13.643-51.799 22.509-12.772 7.06-24.742 15.083-35.792 24.286a200.317 200.317 0 0 0-19.878 18.979 190.493 190.493 0 0 0-9.038 10.66l-.652.832a183.746 183.746 0 0 0-10.441 14.891c-8.512 13.515-15.048 27.878-19.465 42.652-3.693 12.352-5.894 24.98-6.487 37.562A142.154 142.154 0 0 0 57.36 330h502.059c6.625-13.335 12.034-26.967 16.137-40.57 5.725-18.974 8.928-37.864 9.387-55.748"/>
        <path fill="#CED5DC" d="M577.43 385.038l-2.256-.007.008-2.844 2.256.006zM605.184 385.113l-2.256-.005.008-2.844 2.256.005zM582.07 385.051l-3.56-.01.011-4.366 3.56.01z"/>
        <g transform="translate(438 136.01)">
            <mask id="d" fill="#fff">
                <use xlink:href="#b"/>
            </mask>
            <path fill="url(#c)" d="M28.634 6.681l-1.233-.003.011-4.028-.119-.001.005-1.313a.048.048 0 0 0-.047-.047L4.803 1.227c-.022 0-.045.024-.045.047 0 .026.023.046.044.046l.411.003-.001.15-.41-.001c-.021 0-.044.024-.044.049 0 .028.022.045.044.046l.41.001-.001.156-.409-.001c-.022 0-.044.018-.044.042 0 .023.022.05.044.05l.409.001v.15l-.41-.001c-.022 0-.044.025-.044.05 0 .026.022.043.044.043l.41.001-.002.156-.408-.002a.047.047 0 0 0-.045.045c0 .032.022.049.045.049l.408.002-.001.153-.408-.001c-.022 0-.044.017-.045.048 0 .023.023.048.045.048h.408v.033l-3.859-.011-.504 184.398 30.812.085L32.165.999 28.65.99l-.016 5.691zM5.305 1.473l.001-.15 1.738.004-.001.15-1.738-.004zm1.832.004v-.15l1.742.005v.151l-1.742-.006zm1.83.006l.001-.151 1.743.005-.001.15-1.743-.004zm1.837.004v-.15l1.736.005v.15l-1.736-.005zm1.829.007v-.152l1.741.005v.15l-1.741-.003zm1.834.004v-.151l1.742.004v.152l-1.742-.005zm1.835.005v-.151l1.74.005v.151l-1.74-.005zm1.83.005v-.15l1.741.004v.151l-1.741-.005zm1.833.005l.001-.151 1.743.006-.001.15-1.743-.005zm1.832.005v-.15l1.743.004-.001.15-1.742-.004zm1.833.004v-.15l1.742.005-.001.151-1.741-.006zm1.835.006v-.151l1.738.005v.15l-1.738-.004zm-20.16.196v-.156l1.738.005v.156l-1.738-.005zm1.831.005v-.156l1.743.005v.155l-1.743-.004zm1.831.006v-.157l1.743.005v.155l-1.743-.003zm1.836.004v-.156l1.737.005-.001.156-1.736-.005zm1.83.005v-.156l1.74.005v.156l-1.74-.005zm1.833.005l.001-.155 1.741.004v.156l-1.742-.005zm1.835.005l.001-.155 1.74.004v.156l-1.741-.005zm1.831.005v-.156l1.741.006-.001.155-1.74-.005zm1.832.005l.001-.155 1.743.004-.001.156-1.743-.005zm1.832.005v-.156l1.743.005v.155l-1.743-.004zm1.833.005v-.156l1.742.005v.155l-1.742-.004zm1.835.005l.001-.156 1.738.005v.156l-1.739-.005zm-20.16.187v-.15l1.739.004v.151l-1.739-.005zm1.831.005l.001-.151 1.742.005v.151l-1.743-.005zm1.831.005l.001-.151 1.742.005v.15l-1.743-.004zm1.836.005l.001-.15 1.736.004v.15l-1.737-.004zm1.83.005v-.15l1.741.005-.001.15-1.74-.005zm1.833.005l.001-.15 1.742.005-.002.15-1.741-.005zm1.836.005v-.15l1.74.005v.15l-1.74-.005zm1.83.005l.001-.15 1.74.004v.151l-1.741-.005zm1.833.005v-.151l1.743.006v.15l-1.743-.005zm1.831.005l.001-.15 1.742.004v.151l-1.743-.005zm1.833.005l.001-.151 1.741.005v.15l-1.742-.004zm1.835.006l.001-.151 1.739.004-.001.151-1.739-.004zm-20.16.193l.001-.155 1.739.004-.001.156-1.739-.005zm1.832.005v-.156l1.743.006-.001.154-1.742-.004zm1.83.004l.001-.154 1.743.004-.002.156-1.742-.006zm1.837.006v-.156l1.736.005v.155l-1.736-.004zm1.829.004l.001-.155 1.74.005v.156l-1.741-.006zm1.834.006v-.156l1.741.005v.155l-1.741-.004zm1.835.005v-.156l1.741.005-.001.155-1.74-.004zm1.831.005v-.155l1.74.003v.157l-1.74-.005zm1.832.005l.001-.156 1.743.006-.002.155-1.742-.005zm1.832.005v-.155l1.743.004-.001.156-1.742-.005zm1.833.005v-.156l1.742.006-.001.154-1.741-.004zm1.835.004v-.154l1.739.004v.156l-1.739-.006zm-20.16.193V2.31l1.739.004v.153l-1.739-.005zm1.831.005v-.153l1.743.005v.153l-1.743-.005zm1.831.006v-.154l1.742.005v.152l-1.742-.003zm1.836.004v-.153l1.737.005-.001.154-1.736-.006zm1.83.006v-.154l1.74.005v.153l-1.74-.004zm1.833.004l.001-.153 1.741.005v.154l-1.742-.006zm1.834.006l.002-.154 1.74.005-.001.153-1.741-.004zm1.832.004v-.153l1.741.005-.001.153-1.74-.005zm1.832.005l.001-.152 1.742.003-.001.154-1.742-.005zm1.832.005v-.152l1.743.004-.001.153-1.742-.005zm1.833.005v-.153l1.742.005v.153l-1.742-.005zm1.835.006v-.154l1.739.005v.153l-1.739-.004zM5.301 2.59v-.033l1.74.006v.031l-1.74-.004zm1.833.004v-.031l1.742.004V2.6l-1.742-.006zm1.829.006v-.033l1.743.006v.031L8.963 2.6zm1.838.004v-.03l1.736.003v.033l-1.736-.006zm1.829.006v-.032l1.741.005v.031L12.63 2.61zm1.834.004v-.031l1.741.005v.032l-1.741-.006zm1.834.006v-.032l1.741.004v.032l-1.741-.004zm1.832.005v-.033l1.74.006v.032l-1.74-.005zm1.832.005v-.032l1.742.004v.033l-1.742-.005zm1.832.005v-.033l1.742.006v.031l-1.742-.004zm1.833.004v-.031l1.74.004v.033l-1.74-.006zm1.835.006v-.032l1.739.004v.032l-1.739-.004z" mask="url(#d)"/>
        </g>
        <g transform="translate(495 106.01)">
            <mask id="g" fill="#fff">
                <use xlink:href="#e"/>
            </mask>
            <path fill="url(#f)" d="M8.206.873l-.012 4.558-1.101-.002.001-.582h-.14l-.01 3.32-1.101-.003.001-.588-.14-.001-.009 3.281-1.117-.004-.001.509-1.574 2.619-.241 88.301-1.939 5.032-.299 109.819 33.39.092.3-109.82-1.911-5.043.241-88.3-1.559-2.628.002-.509-1.116-.003.01-3.279h-.14l-.002.587-1.102-.003.008-3.318-.14-.001-.001.579-1.105-.002.013-4.559h-.14l-.001.581-1.372-.004.002-.581h-.141v.581L9.858 1.459 9.86.877h-.14l-.001.581-1.373-.004.001-.581z" mask="url(#g)"/>
        </g>
        <path fill="#D4EDA7" d="M523.56 324.454c6.73-2.105 14.558-17.655 2.88-17.687 6.75-9.89 4.646-17.329-8.448-17.01 2.486-3.179 3.218-12.378.042-15.572-3.88-4.257-10.62 1.033-14.874 3.852-.687-7.787-5.637-9.217-11.665-4.986-2.837 1.761-4.617 5.65-7.453 7.412-5.316 2.816-2.479.7-5.3-2.847-8.82-9.933-20.542 5.608-20.923 15.516-3.517-8.15-9.543-4.627-11.686 2.445-2.142 7.072-1.105 15.922 1 22.652-8.34-.856-7.753 9.67-5.924 16.971l84.155.231c1.04-3.819.805-7.789-1.805-10.977"/>
        <path fill="#D4EDA7" d="M558.865 325.142c6.141-1.92 13.283-16.108 2.627-16.137 6.16-9.025 4.241-15.811-7.707-15.52 2.268-2.901 2.937-11.294.039-14.208-3.542-3.885-9.689.942-13.571 3.514-.627-7.105-5.144-8.41-10.644-4.55-2.588 1.608-4.212 5.156-6.8 6.763-4.85 2.57-2.261.64-4.836-2.596-8.047-9.064-18.742 5.115-19.089 14.155-3.209-7.436-8.707-4.222-10.663 2.23-1.955 6.454-1.007 14.529.913 20.669-7.609-.781-7.074 8.823-5.406 15.486l76.783.209c.949-3.484.735-7.107-1.646-10.015"/>
        <path fill="url(#h)" d="M85.876 56.964c4.962-1.552 10.732-13.016 2.123-13.04 4.977-7.29 3.426-12.773-6.227-12.54 1.833-2.342 2.373-9.123.03-11.48-2.861-3.137-7.828.763-10.965 2.842-.505-5.741-4.155-6.796-8.6-3.677-2.09 1.299-3.402 4.166-5.493 5.465-3.92 2.076-1.828.516-3.908-2.098-6.502-7.324-15.143 4.132-15.424 11.437-2.593-6.008-7.035-3.411-8.614 1.803-1.58 5.214-.816 11.738.737 16.699-6.148-.632-5.716 7.128-4.368 12.512l62.039.169c.767-2.815.594-5.742-1.33-8.092" transform="translate(440 270.01)"/>
        <g transform="translate(551 173.01)">
            <mask id="k" fill="#fff">
                <use xlink:href="#i"/>
            </mask>
            <path fill="url(#j)" d="M12.816.953l-.004 1.245-.507.08-.718-.001V2.01l-.389-.001v.267l-5.701-.017-1.638-.275-2.636.356-.003.821-.365-.001-.008 2.73h.277l-.002.646H.846v.322l.275.001-.002.652-.275-.001-.001.323.276.001-.003.65H.84l-.001.319h.277l-.002.653-.277-.001v.324l.276.002-.002.647-.275-.001-.001.324h.275l-.001.651-.276-.001-.001.322.276.001-.001.651H.829l-.001.32.277.002-.002.65-.275-.001-.001.323.275.001-.002.65-.275-.001-.001.323.275.001v.651l-.277-.001-.001.322h.277l-.002.648-.277-.001-.001.323.277.001-.003.653-.275-.001-.001.322h.275l-.002.649-.275-.001-.001.323.276.001-.001.651-.277-.002-.001.326.277.001-.002.649-.275-.001-.001.319.275.001-.003.653-.275-.001-.001.323.276.001-.001.652-.277-.001-.001.321.277.001-.002.648-.276-.001-.001.321.276.001-.002.652H.799l-.001.326h.275l-.002.649-.276-.001-.001.32.277.001-.002.651-.277-.001v.323l.276.001-.002.651-.276-.002v.32l.275.001-.002.652-.275-.001-.001.324h.275v.654l-.277-.001-.001.317h.277l-.01 3.422H.775L.616 90.733l15.464.042.158-58.08-.275-.001.008-3.424.277.001.001-.316h-.276l.002-.654.276.001.001-.323-.277-.001.002-.652.276.001.001-.319-.276-.001.001-.653.276.001.001-.323-.276-.001.002-.649h.276l.002-.319h-.277l.002-.651.277.001v-.325l-.276-.001.002-.651h.275l.001-.322h-.276l.002-.648.276.001.001-.322h-.276l.002-.653.276.001.002-.323-.278-.001.003-.651.276.001v-.32l-.275-.001.001-.65h.276l.001-.325h-.276l.002-.65h.276l.001-.322-.276-.001.001-.648.277.001v-.322l-.276-.001.003-.653.275.001.001-.324h-.276l.002-.648.276.001.001-.321-.276-.001.001-.651h.277l.001-.322-.277-.001.002-.65.276.001v-.322l-.275-.001.001-.653.276.001.002-.32-.277-.001.003-.652h.276l.001-.321-.276-.001.001-.65.277.001v-.324l-.276-.002.002-.647.275.001.001-.324h-.275l.001-.652.276.001.001-.321-.276-.001.002-.65.277.001.001-.324h-.277l.002-.65.275.001.001-.323-.275-.001.001-.647h.276l.008-2.727-.363-.001.001-.822-1.861-.346.003-1.08h-.166l-.002 1.061-.95.155.003-1.218z" mask="url(#k)"/>
        </g>
        <g transform="translate(240 167.01)">
            <mask id="n" fill="#fff">
                <use xlink:href="#l"/>
            </mask>
            <path fill="url(#m)" d="M40.412.985a.843.843 0 0 0 .708.822l-.009 3.212-24.739 10.57-.006 2.089c-.235.052-.398.136-.399.238 0 .095.163.176.397.23l-.002 1.006c-.236.053-.399.131-.4.234 0 .097.163.176.398.223l-.002 1.016c-.235.05-.399.135-.399.227 0 .102.163.182.397.231l-.003 1.009c-.234.054-.398.13-.398.231 0 .095.163.185.397.233l-.002 1.01c-.235.047-.399.129-.399.227s.163.181.398.235l-.003 1.004c-.235.05-.399.133-.399.237 0 .095.163.172.397.224l-.001.143 1.717.004-.014 5.388-1.717-.006-.005 2.068c-.235.053-.398.138-.399.239 0 .092.163.173.397.227l-.003 1.01c-.234.046-.398.129-.398.23 0 .102.163.184.397.233l-.003 1.01c-.235.04-.398.129-.398.23 0 .096.162.176.397.222l-.002 1.009c-.235.053-.399.139-.399.236 0 .095.163.185.397.227l-.003 1.015c-.234.044-.398.131-.398.225 0 .099.163.185.397.233l-.002 1.004c-.236.057-.399.135-.399.236-.001.096.162.185.398.234l-.003 1.003c-.236.053-.399.136-.399.231-.001.1.162.187.397.232l-.06 21.908-2.306-.006-.159 58.283-13.43-.037-.052 18.701 56.994.157.339-124.383L51.4.63 41.395 4.899l.008-3.091a.84.84 0 0 0 .711-.819.847.847 0 0 0-.848-.853.85.85 0 0 0-.854.849" mask="url(#n)"/>
        </g>
        <path fill="url(#o)" d="M81.179.462L79.13.457l-.009 3.268h-.239l-.001.509-3.993-1.759-11.002 2.282.46.462-.002.98C46.565 4.892 34.223 4.028 34.223 4.028s-1.024.297-1.357 1.857c-.303 1.417.515 2.426.515 2.426s10.372 2.112 32.788 4.27l2.092 47.156-9.293 65.613-.167.045-.002.617s-2.044-.241-3.904-.123c-2.386.165-3.915.671-3.915.671v.609s-2.042-.251-3.903-.126c-2.388.166-3.915.663-3.915.663l-.001.622s-2.045-.247-3.903-.123c-2.384.159-3.914.665-3.914.665l-.001.616s-2.04-.253-3.901-.124c-2.385.165-3.916.655-3.916.655l-.002.617s-2.04-.242-3.896-.115c-2.392.16-3.922.663-3.922.663v.614s-2.041-.245-3.898-.123c-2.391.163-3.92.663-3.92.663l-.001.617s-2.04-.253-3.899-.127c-2.388.166-3.916.669-3.916.669l-.003 1.077-2.558 1.107-.003 1.309-1.482-.004L0 146.667l315.369.861.04-14.738-.693-.001.015-5.91-3.337-.009.01-3.953-1.521-.004.009-3.686s-1.523-.508-3.909-.675c-1.857-.135-3.904.099-3.904.099l.002-.622s-1.524-.504-3.911-.682c-1.858-.137-3.902.101-3.902.101l.002-.616s-1.525-.504-3.911-.684c-1.855-.138-3.902.104-3.902.104l.003-.615s-1.527-.509-3.913-.688c-1.859-.132-3.904.103-3.904.103l.001-.619s-1.522-.504-3.906-.685c-1.859-.135-3.901.105-3.901.105l.002-.612s-1.53-.514-3.914-.687c-1.858-.13-3.903.102-3.903.102l.002-.626s-1.524-.503-3.914-.673c-1.857-.143-3.9.096-3.9.096l.002-.612s-1.526-.514-3.911-.691c-1.858-.13-3.902.106-3.902.106l.002-.614s-1.514-.513-3.912-.521c-2.4-.007-3.914.5-3.914.5l-.002.615s-2.043-.248-3.903-.128c-2.389.164-3.913.669-3.913.669l-.001.217c-.68-8.861-1.48-21.903-1.447-34.004.048-17.619.692-51.075.893-61.127l2.739-.058s1.027-.865.569-4.159c-.546-3.883-1.793-4.165-1.793-4.165s-.691.029-1.942.076l.002-.773-.925-.003-.002.814c-3.368.128-9.54.353-17.557.598l.008-2.809h-.239l.01-3.277-.409-.001.001-.363L210 1.739l-.001.362-1.109-.003.002-.269-.834-.003v.27l-4.916-.014-.009 3.277-.237-.001-.008 3.109c-.679.016-1.362.039-2.054.056l.001-.621-6.38-.018-.002.798c-11.932.287-25.548.537-39.185.614l.004-.779-4.067-.011-.001.809c-2.737.009-5.468.009-8.179.002-20.612-.057-38.548-.667-54.748-1.554l.01-4.013-.236-.001.009-3.268-6.048-.016.001-.462L81.18 0l-.001.462zm25.344 58.561c.04-14.29.734-35.96.985-43.381 6.874.334 14.128.581 21.87.733l2.069 53.366-5.543 50.058c-.155.041-.255.074-.255.074l-.002.614s-2.043-.244-3.897-.126c-2.39.171-3.922.674-3.922.674l-.001.617s-2.041-.25-3.901-.123c-2.386.162-3.914.659-3.914.659l-.002.621s-1.764-.212-3.502-.138c-.006-15.612-.022-50.298.015-63.648zm62.447 61.592c-.047-11.128-.135-35.21-.092-50.772.047-17.316.817-44.65 1.075-53.322 7.459-.016 14.32-.055 20.533-.098.983 13.134 3.983 54.234 3.949 66.568-.013 5.21-1.049 20.63-2.034 34.156-.595-.062-2.168-.201-3.639-.099-2.388.165-3.917.66-3.917.66l-.001.623s-2.042-.246-3.902-.121c-2.389.154-3.912.656-3.912.656l-.001.622s-2.045-.256-3.904-.131c-2.391.173-3.914.668-3.914.668l-.002.617-.239-.027z" transform="translate(22 183.01)"/>
        <path fill="#B9BDBF" d="M303.046 127.746s7.89 11.49-6.296 26.558c-14.184 15.067 21.892-13.727 21.892-13.727l-1.381-14.686-14.215 1.855z"/>
        <path fill="#266396" d="M252.579 360.314l-.034 12.405c-.02 6.852 38.552 12.51 86.148 12.64 47.598.13 86.198-5.317 86.217-12.17l.034-12.404-172.365-.471z"/>
        <path fill="#3176DE" d="M252.579 360.314c-.02 6.852 38.55 12.51 86.148 12.64 47.598.13 86.198-5.318 86.217-12.17.019-6.85-38.552-12.51-86.15-12.64-47.596-.13-86.196 5.319-86.215 12.17"/>
        <path fill="#266396" d="M262.21 344.493l-.028 11.024c-.017 6.09 34.26 11.12 76.562 11.235 42.302.115 76.608-4.728 76.624-10.817l.03-11.024-153.187-.418z"/>
        <path fill="#3176DE" d="M262.21 344.493c-.016 6.09 34.264 11.118 76.564 11.233 42.302.117 76.608-4.726 76.624-10.815.017-6.089-34.262-11.118-76.563-11.234-42.302-.116-76.607 4.727-76.624 10.816"/>
        <g transform="translate(262 192.01)">
            <mask id="q" fill="#fff">
                <use xlink:href="#p"/>
            </mask>
            <path d="M48.591 87.662c-1.206 21.895-23.324 17.172-38.999 10.987-6.297-2.484-10.583 4.134-8.88 10.963 10.683 42.838 13.696 45.451 101.35 45.69 87.655.24 55.361-153.072 55.361-153.072L50.649.799s-.604 60.485-2.058 86.863" mask="url(#q)"/>
        </g>
        <g transform="translate(262 192.01)">
            <mask id="s" fill="#fff">
                <use xlink:href="#r"/>
            </mask>
            <path d="M48.591 87.662c-1.206 21.895-23.324 17.172-38.999 10.987-6.297-2.484-10.583 4.134-8.88 10.963 10.683 42.838 13.696 45.451 101.35 45.69 87.655.24 55.361-153.072 55.361-153.072L50.649.799s-.604 60.485-2.058 86.863" mask="url(#s)"/>
        </g>
        <g transform="translate(261 193.01)">
            <mask id="u" fill="#fff">
                <use xlink:href="#t"/>
            </mask>
            <use fill="#CED5DC" xlink:href="#t"/>
            <path fill="#E4EBF2" d="M159.94 34.698c-4.42-.012-8.257-2.007-10.147-4.908-1.906 2.89-5.753 4.865-10.173 4.852-4.42-.01-8.256-2.007-10.147-4.908-1.905 2.891-5.753 4.865-10.173 4.853-4.42-.012-8.256-2.007-10.146-4.909-1.905 2.892-5.752 4.866-10.172 4.854-4.42-.013-8.257-2.008-10.147-4.909-1.906 2.89-5.753 4.865-10.173 4.853-4.42-.012-8.256-2.007-10.146-4.908-1.906 2.89-5.754 4.864-10.174 4.853-4.42-.012-8.256-2.007-10.145-4.909-1.906 2.891-5.753 4.865-10.173 4.853-4.42-.012-8.256-2.008-10.147-4.908-1.906 2.89-5.752 4.865-10.172 4.852-6.298-.016-11.412-4.059-11.398-9.012a1.263 1.263 0 0 1 2.524.006c-.01 3.562 3.974 6.47 8.88 6.483 4.907.014 8.906-2.872 8.916-6.434a1.261 1.261 0 1 1 2.523.007c-.01 3.562 3.975 6.47 8.881 6.483 4.906.013 8.906-2.873 8.916-6.434a1.262 1.262 0 1 1 2.522.007c-.009 3.561 3.974 6.47 8.88 6.482 4.906.014 8.906-2.873 8.916-6.434a1.262 1.262 0 0 1 2.524.006c-.01 3.562 3.974 6.47 8.88 6.484 4.906.014 8.906-2.873 8.916-6.435a1.262 1.262 0 0 1 2.523.007c-.01 3.562 3.975 6.47 8.881 6.484 4.906.012 8.905-2.873 8.915-6.435a1.262 1.262 0 0 1 2.523.007c-.009 3.561 3.974 6.47 8.88 6.483 4.906.013 8.906-2.873 8.916-6.434a1.263 1.263 0 0 1 2.524.006c-.01 3.562 3.974 6.47 8.88 6.483 4.906.014 8.906-2.872 8.916-6.434a1.26 1.26 0 1 1 2.523.007c-.01 3.562 3.974 6.47 8.88 6.483 4.906.013 8.906-2.873 8.916-6.435a1.262 1.262 0 1 1 2.523.008c-.013 4.952-5.148 8.968-11.446 8.95zm-.07 25.234c-4.42-.013-8.256-2.007-10.146-4.908-1.906 2.89-5.752 4.864-10.172 4.852-4.42-.011-8.256-2.007-10.147-4.908-1.906 2.89-5.753 4.865-10.173 4.853-4.42-.012-8.257-2.007-10.146-4.91-1.905 2.892-5.753 4.867-10.173 4.854-4.42-.012-8.256-2.008-10.147-4.908-1.906 2.89-5.752 4.865-10.172 4.853-4.42-.012-8.256-2.008-10.147-4.91-1.906 2.892-5.753 4.866-10.173 4.855-4.42-.013-8.257-2.008-10.145-4.91-1.906 2.892-5.754 4.866-10.174 4.854-4.42-.012-8.256-2.008-10.147-4.908-1.906 2.889-5.752 4.864-10.172 4.852-6.298-.017-11.411-4.06-11.397-9.012a1.261 1.261 0 1 1 2.523.006c-.01 3.562 3.974 6.469 8.88 6.483 4.907.014 8.907-2.873 8.916-6.435a1.262 1.262 0 0 1 2.524.007c-.01 3.563 3.974 6.47 8.88 6.484 4.906.013 8.906-2.873 8.916-6.435a1.262 1.262 0 0 1 2.523.007c-.01 3.56 3.974 6.47 8.88 6.483 4.906.014 8.906-2.873 8.915-6.434a1.263 1.263 0 0 1 2.524.006c-.01 3.562 3.974 6.47 8.88 6.484 4.907.013 8.907-2.873 8.916-6.435a1.263 1.263 0 0 1 2.524.007c-.01 3.562 3.974 6.47 8.88 6.483 4.906.013 8.905-2.872 8.915-6.434a1.262 1.262 0 1 1 2.523.007c-.01 3.56 3.975 6.47 8.88 6.482 4.907.014 8.906-2.872 8.916-6.433a1.263 1.263 0 0 1 2.524.006c-.01 3.562 3.974 6.469 8.88 6.483 4.907.014 8.907-2.873 8.916-6.435a1.262 1.262 0 0 1 2.524.007c-.01 3.563 3.973 6.47 8.879 6.484 4.906.013 8.906-2.873 8.916-6.435a1.262 1.262 0 0 1 2.523.007c-.013 4.953-5.148 8.968-11.446 8.95zm-.069 25.233c-4.42-.013-8.256-2.008-10.145-4.909-1.906 2.891-5.754 4.865-10.174 4.853-4.42-.012-8.256-2.007-10.147-4.908-1.906 2.89-5.753 4.864-10.173 4.853-4.42-.012-8.256-2.007-10.146-4.909-1.904 2.891-5.752 4.865-10.172 4.853-4.42-.012-8.256-2.008-10.146-4.908-1.906 2.889-5.753 4.865-10.173 4.852-4.42-.011-8.257-2.007-10.148-4.908-1.905 2.891-5.752 4.865-10.172 4.853-4.42-.012-8.256-2.007-10.145-4.909-1.907 2.892-5.754 4.866-10.174 4.854-4.42-.013-8.257-2.008-10.147-4.909-1.905 2.89-5.753 4.865-10.172 4.853-6.297-.017-11.412-4.06-11.398-9.013a1.262 1.262 0 0 1 2.525.006c-.01 3.562 3.973 6.47 8.879 6.484 4.907.014 8.907-2.873 8.916-6.435a1.26 1.26 0 1 1 2.523.007c-.01 3.562 3.975 6.47 8.882 6.484 4.906.012 8.906-2.873 8.915-6.435a1.262 1.262 0 0 1 2.523.007c-.01 3.561 3.974 6.47 8.88 6.483 4.905.013 8.906-2.873 8.915-6.434a1.263 1.263 0 0 1 2.525.006c-.01 3.562 3.972 6.47 8.879 6.483 4.906.014 8.906-2.872 8.916-6.434a1.26 1.26 0 1 1 2.523.007c-.01 3.562 3.975 6.47 8.882 6.483 4.905.013 8.904-2.872 8.914-6.434a1.262 1.262 0 1 1 2.522.007c-.008 3.561 3.975 6.469 8.882 6.482 4.906.014 8.906-2.873 8.915-6.434a1.262 1.262 0 0 1 2.524.006c-.01 3.562 3.974 6.47 8.88 6.484 4.906.014 8.906-2.873 8.916-6.435a1.26 1.26 0 1 1 2.524.007c-.01 3.562 3.974 6.47 8.88 6.484 4.905.012 8.905-2.873 8.916-6.435a1.261 1.261 0 1 1 2.522.007c-.013 4.953-5.149 8.968-11.446 8.951zm-.069 25.232c-4.42-.012-8.256-2.007-10.146-4.907-1.906 2.89-5.752 4.865-10.172 4.853-4.42-.013-8.257-2.008-10.147-4.91-1.906 2.891-5.754 4.865-10.174 4.854-4.42-.013-8.256-2.008-10.146-4.91-1.905 2.892-5.752 4.867-10.172 4.855-4.42-.013-8.256-2.008-10.147-4.909-1.906 2.89-5.752 4.865-10.172 4.853-4.42-.011-8.257-2.008-10.147-4.909-1.906 2.89-5.754 4.865-10.173 4.854-4.42-.012-8.257-2.007-10.146-4.91-1.906 2.892-5.753 4.867-10.173 4.853-4.42-.011-8.256-2.007-10.147-4.907-1.906 2.89-5.752 4.865-10.172 4.853-6.298-.017-11.41-4.06-11.398-9.014a1.263 1.263 0 0 1 2.524.007c-.01 3.561 3.974 6.47 8.88 6.484 4.907.013 8.907-2.873 8.916-6.435a1.263 1.263 0 0 1 2.524.006c-.01 3.563 3.974 6.47 8.88 6.484 4.906.013 8.906-2.874 8.916-6.434a1.262 1.262 0 1 1 2.523.007c-.01 3.56 3.974 6.47 8.88 6.482 4.905.014 8.905-2.872 8.915-6.433a1.263 1.263 0 0 1 2.524.005c-.01 3.563 3.974 6.47 8.88 6.484 4.907.013 8.907-2.874 8.916-6.436a1.263 1.263 0 0 1 2.523.008c-.01 3.563 3.975 6.47 8.881 6.484 4.906.013 8.905-2.874 8.915-6.436a1.262 1.262 0 0 1 2.523.008c-.009 3.56 3.975 6.47 8.881 6.482 4.905.014 8.905-2.873 8.915-6.434a1.262 1.262 0 0 1 2.524.007c-.01 3.561 3.974 6.47 8.88 6.484 4.907.013 8.907-2.873 8.916-6.435a1.262 1.262 0 0 1 2.523.006c-.01 3.563 3.974 6.47 8.88 6.483 4.906.014 8.906-2.873 8.916-6.433a1.263 1.263 0 0 1 2.523.007c-.013 4.953-5.148 8.968-11.446 8.95zm-.068 25.234c-4.42-.012-8.257-2.007-10.146-4.908-1.906 2.89-5.753 4.865-10.173 4.852-4.42-.011-8.256-2.007-10.147-4.908-1.906 2.89-5.753 4.865-10.173 4.853-4.42-.012-8.256-2.007-10.146-4.91-1.905 2.893-5.753 4.867-10.173 4.855-4.42-.013-8.256-2.008-10.146-4.91-1.906 2.89-5.753 4.866-10.173 4.854-4.42-.012-8.256-2.007-10.147-4.908-1.906 2.89-5.753 4.864-10.173 4.853-4.42-.012-8.256-2.007-10.145-4.91-1.906 2.892-5.754 4.867-10.173 4.854-4.42-.012-8.257-2.008-10.147-4.908-1.906 2.889-5.753 4.865-10.173 4.852-6.298-.016-11.411-4.06-11.397-9.012a1.263 1.263 0 0 1 2.524.006c-.01 3.562 3.973 6.47 8.879 6.483 4.907.014 8.907-2.872 8.917-6.434a1.26 1.26 0 1 1 2.523.007c-.01 3.562 3.975 6.47 8.88 6.483 4.906.013 8.906-2.873 8.916-6.434a1.263 1.263 0 0 1 2.523.007c-.01 3.56 3.974 6.469 8.88 6.482 4.906.014 8.906-2.873 8.916-6.434a1.262 1.262 0 0 1 2.524.006c-.01 3.562 3.973 6.47 8.879 6.484 4.907.014 8.907-2.873 8.917-6.435a1.262 1.262 0 0 1 2.523.007c-.01 3.562 3.975 6.47 8.88 6.484 4.906.012 8.905-2.873 8.915-6.435a1.262 1.262 0 0 1 2.523.007c-.01 3.56 3.975 6.47 8.88 6.483 4.907.013 8.907-2.873 8.917-6.434a1.263 1.263 0 0 1 1.265-1.26 1.263 1.263 0 0 1 1.259 1.266c-.01 3.562 3.973 6.47 8.88 6.483 4.906.014 8.906-2.872 8.916-6.434a1.26 1.26 0 1 1 2.523.007c-.01 3.562 3.974 6.47 8.88 6.483 4.906.013 8.905-2.873 8.915-6.434a1.262 1.262 0 0 1 2.523.007c-.013 4.952-5.148 8.968-11.445 8.95z" mask="url(#u)"/>
            <path fill="#7C8084" fill-opacity=".5" d="M34-28h130v142L34 59.385z" mask="url(#u)"/>
        </g>
        <path fill="url(#v)" d="M70.692 91.044c.8-.711 1.747-.922 3.601-1.131l1.53-1.522a1.856 1.856 0 0 1 2.626.007l1.056 1.062a17.828 17.828 0 0 0 3.097-.723c4.267-1.41 9.716-6.814 11.91-9.47 2.966-3.594 2.198-11.174-1.924-11.327-6.354-.237-8.296 2.67-13.38 3.897l-2.883 2.866a2.232 2.232 0 0 1-3.158-.01l-2.35-2.361c-5.55-.472-6.118-6.295-5.956-11.505l1.782-15.71c4.052-6.9 10.566 2.703 22.568-6.094 8.802-6.454 3.486-12.535 10.466-17.024 6.982-4.488 23.713-11.303 23.713-11.303l53.867 47.038-66.915 48.13s-18.302 2.71-31.087 1.255c-4.306-.49-10.01.195-9.714-7.396.094-2.442.057-8.062 1.151-8.68" transform="translate(213 63.01)"/>
        <path fill="#585C5E" d="M279.3 116.383c5.954.017 10.84-4.554 11.336-10.383-5.067-.117-8.498-2.121-10.992 2.128l-.933 8.224c.196.01.39.031.589.031"/>
        <path fill="#CED5DC" d="M338.159 76.553s36.192 21.413-2.177 58.253c-35.927 34.495-77.457 60.254-40.111 118.335 4.202 6.536 13.096 8.087 19.178 3.251 12.7-10.097 35.902-25.815 63.558-31.95 31.812-7.058 68.002-27.624 64.334-72.158-3.427-41.606-41.877-88.347-104.782-75.731"/>
        <path fill="#B9BDBF" d="M316.799 110.139c.675 3.195 4.339 4.954 7.506 3.544 6.145-2.735 9.98-7.066 9.149-11.01-.832-3.94-6.09-6.353-12.816-6.374-3.468-.01-6.11 3.078-5.435 6.275l1.596 7.565z"/>
        <path fill="#DCDEDF" d="M314.285 107.927c-.154 2.889 2.403 5.223 5.253 4.733 5.53-.951 9.553-3.79 9.745-7.351.192-3.562-3.503-6.818-8.897-8.358-2.782-.794-5.576 1.253-5.732 4.14l-.369 6.836z"/>
        <path fill="#FFF" d="M313.918 105.041c.066 4.132 1.642 7.456 3.521 7.426 1.88-.03 3.349-3.402 3.283-7.534-.065-4.13-1.642-7.456-3.522-7.426-1.878.03-3.348 3.402-3.282 7.534"/>
        <path fill="#EBF1F7" d="M331.77 76.043c-1.162 7.328 1.538 13.847 6.031 14.56 4.492.711 9.076-4.653 10.24-11.98 1.161-7.329-1.54-13.848-6.033-14.559-4.492-.713-9.076 4.65-10.238 11.98"/>
        <path fill="#E4EBF2" d="M314.016 237.52c-11.402-10.234-32.659-21.487-50.377 13.5l4.5 29.459 25.176-11.823s.62-18.96 18.228-22.161c4.163-.758 5.672-6.103 2.473-8.974"/>
        <path fill="#9EA3A8" d="M247.767 243.982s-24.426 3.508-33.837 20.382c-1.898 3.403-.2 7.75 3.444 8.805 10.814 3.132 33.12 11.057 46.177 26.003 1.698 1.944 4.788 1.148 5.413-1.397l3.316-13.494-24.513-40.3z"/>
        <path fill="#C0C6CC" d="M313.97 259.62c4.353-1.346 6.013-6.892 3.114-10.528-4.528-5.682-13.017-11.148-27.908-5.467-25.923 9.89-19.888 28.335-19.888 28.335s.348-35.618-14.737-42.865c-11.867-5.703-25.964-2.765-36.62 7.477-3.46 3.326-1.726 9.276 2.88 10.318 10.746 2.432 27.59 18.892 42.311 51.338 1.375 3.032 4.741 4.488 7.766 3.33l.093-.035c3.175-1.216 5.537-3.99 6.365-7.402 2.13-8.772 9.709-26.193 36.624-34.502"/>
        <path fill="#575C5E" d="M407.93 313.812a6.076 6.076 0 1 1-12.153-.033 6.078 6.078 0 0 1 12.153.033"/>
        <path fill="#2A2C2D" d="M401.87 307.718a6.136 6.136 0 0 0-.964.081 6.075 6.075 0 0 1 5.097 6.008 6.074 6.074 0 0 1-5.13 5.979c.315.051.636.085.964.086a6.077 6.077 0 1 0 .033-12.154"/>
        <path fill="#00B0B2" d="M396.75 314.505c12.43 2.652 15.229 17.337 14.729 28.1-.523 11.248-4.242 22.09-12.361 30.122-8.684 8.591-19.92 11.972-31.556 14.512-5.585 1.22-11.21 2.248-16.785 3.514-4.8 1.09-10.217 2.111-14.488 4.682-9.001 5.418-3.437 16.186 4.69 18.84 5.65 1.843 12.143 1.593 18.065 1.798 11.766.407 23.543.54 35.315.647 33.166.302 66.337.187 99.503.007 30.515-.166 61.03-.424 91.542-.775 8.454-.097 16.908-.194 25.363-.33 1.509-.025 3.035.007 4.543-.09 7.206-.467 14.124-7.933 4.844-11.902-5.786-2.474-12.533-3.507-18.708-4.492-1.588-.253-2.28 2.176-.677 2.431 3.266.522 6.513 1.136 9.732 1.9 2.572.611 7.874 1.146 9.82 3.038 4.076 3.965-1.695 6.228-5.005 6.501-.18.015-.36.004-.54.017-1.858.126-3.746.07-5.607.098-8.654.132-17.31.233-25.965.331-29.306.331-58.612.58-87.92.741-32.085.18-64.175.287-96.261.04-11.873-.09-23.75-.215-35.618-.549-4.091-.116-8.182-.25-12.268-.482-6.212-.35-15.131-1.135-16.86-8.542-1.755-7.517 9.008-9.488 14.257-10.787 19.8-4.896 42.178-5.97 55.839-23.245 5.815-7.352 8.69-16.339 9.473-25.6.78-9.242-.207-19.372-6.335-26.795-2.624-3.179-6.051-5.3-10.082-6.16-1.583-.339-2.267 2.091-.678 2.43"/>
        <path fill="#FFF" d="M336.213 76.362s6.25 2.044 7.878 4.87c0 0 2.452-12.655-2.523-13.32-4.974-.665-5.355 8.45-5.355 8.45"/>
        <path fill="#C0C6CC" d="M359.856 74.467s34.685 110.367 23.61 152.586l59.253-17.564c6.367-1.886 10.37-8.157 9.43-14.73-4.406-30.766-22.644-112.874-92.293-120.292"/>
        <path fill="#9EA3A8" d="M359.856 74.467c.001 0 32.533 117.466-16.61 162.092l81.031-4.21c5.727-.298 10.266-4.956 10.391-10.69.69-31.651-3.27-127.436-74.812-147.192"/>
        <path fill="#C0C6CC" d="M359.97 74.317s15.992 117.396-28.028 160.907c-3.042 3.007-.917 8.184 3.361 8.17l57.255-.16c5.661-.017 10.565-3.936 11.807-9.46 6.835-30.418 22.21-125.891-44.395-159.457"/>
        <g transform="translate(112 136.01)">
            <mask id="y" fill="#fff">
                <use xlink:href="#w"/>
            </mask>
            <path fill="url(#x)" fill-opacity=".8" d="M.665 182.006l68.917-.08S31.54 63.441 196.707.982c0 0-202.734 13.73-196.042 181.024" mask="url(#y)"/>
        </g>
        <g>
            <path fill="#D4EDA7" d="M171.431 353.83c3.65-.902 10.03.027 9.742-6.052-.289-5.47-9.092-9.446-13.647-10.675 3.043-1.208 5.788-4.847 4.278-8.499-2.115-4.564-10.624-4.89-13.959-7.94-3.639-3.049-.91-.61-1.812-3.956-4.217-14.296-10.618-7.323-22.77-9.483 2.772-13.366-19.449-.662-24.009-.37-2.128-.006-4.249-2.139-6.68-2.146-2.432-.007-5.17 1.506-7.303 3.02-3.959 3.028-5.195 10.32-8.542 11.83-2.13.906-3.643-1.834-6.384.286-1.219 1.213-2.14 4.553-2.752 6.071-1.222 2.428-2.143 6.073-4.579 7.282-1.826.906-4.253-.62-6.383.286-3.653 2.117-2.14 5.16-2.456 8.808-.01 3.646.298 2.432-1.226 4.251-1.525 1.516-3.957 2.117-5.179 4.241-1.884 3.183-2.176 6.658-1.397 10.025l118.68.325c-1.417-2.938-3.03-5.636-3.622-7.304"/>
            <path fill="#D4EDA7" d="M217.629 353.956c3.649-.9 10.029.027 9.742-6.052-.29-5.47-9.092-9.446-13.647-10.675 3.043-1.208 5.787-4.847 4.278-8.499-2.115-4.564-10.624-4.89-13.96-7.939-3.638-3.05-.91-.61-1.811-3.956-4.217-14.297-10.62-7.324-22.77-9.484 2.772-13.366-19.45-.662-24.01-.37-2.127-.005-4.25-2.139-6.68-2.146-2.431-.006-5.17 1.506-7.303 3.02-3.958 3.028-5.194 10.32-8.542 11.83-2.13.906-3.642-1.834-6.383.286-1.22 1.213-2.14 4.553-2.752 6.071-1.222 2.43-2.144 6.073-4.58 7.282-1.825.906-4.252-.62-6.382.286-3.653 2.117-2.142 5.161-2.456 8.808-.01 3.646.297 2.433-1.227 4.251-1.524 1.516-3.957 2.117-5.178 4.241-1.884 3.183-2.177 6.66-1.397 10.025l118.678.325c-1.415-2.938-3.03-5.635-3.62-7.304"/>
            <path fill="url(#z)" d="M137.869 85.693c3.242-.802 8.909.024 8.654-5.376-.257-4.86-8.077-8.393-12.124-9.483 2.703-1.074 5.142-4.306 3.8-7.55-1.878-4.055-9.436-4.346-12.4-7.054-3.233-2.709-.808-.542-1.61-3.515-3.746-12.699-9.432-6.504-20.226-8.424 2.462-11.873-17.28-.587-21.33-.328-1.89-.005-3.775-1.9-5.934-1.907-2.16-.006-4.594 1.337-6.487 2.683-3.518 2.69-4.615 9.167-7.59 10.51-1.892.803-3.234-1.63-5.67.254-1.083 1.076-1.9 4.044-2.444 5.392-1.086 2.157-1.905 5.395-4.068 6.47-1.622.805-3.778-.55-5.671.254-3.245 1.881-1.902 4.584-2.181 7.824-.01 3.24.263 2.161-1.09 3.776-1.354 1.347-3.516 1.881-4.601 3.768-1.673 2.827-1.933 5.916-1.24 8.906l105.428.288c-1.258-2.609-2.692-5.007-3.216-6.488" transform="translate(55 269.01)"/>
            <path fill="#3176DE" d="M109.05 301.855c-1.18-5.323-2.821-8.054-4.074-9.44a4.012 4.012 0 0 0-1.523-1.248c-.195-.101-.308-.133-.308-.133l-.001.002a4.163 4.163 0 0 0-.353-.116 4.027 4.027 0 0 0-2.101 7.774l.038.008c2.94 1.084 5.333 2.336 6.984 3.917.576.552 1.512.016 1.339-.764M182.066 316.44c1.554-4.331 3.22-6.442 4.415-7.471.381-.398.86-.706 1.406-.883.175-.063.274-.08.274-.08v.003a3.397 3.397 0 1 1 1.241 6.672c-.012 0-.023 0-.033.003-2.577.595-4.713 1.389-6.263 2.537-.54.4-1.268-.147-1.04-.781"/>
            <path fill="#FFDACF" d="M512.53 285.516l2.67 8.958-7.923 2.362-2.67-8.957z"/>
            <path fill="#FFDACF" d="M497.797 281.683a8.124 8.124 0 0 0 8.29 7.96 8.106 8.106 0 0 0 4.744-1.646c.348-.263.675-.558.977-.884a8.078 8.078 0 0 0 2.232-5.752 8.1 8.1 0 0 0-4.82-7.26 7.668 7.668 0 0 0-1.42-.484l-.02-.007a8.364 8.364 0 0 0-2.016-.21 6.944 6.944 0 0 0-.52.03 8.128 8.128 0 0 0-3.884 1.366 8.117 8.117 0 0 0-3.563 6.887"/>
            <path fill="#4F5A60" d="M505.462 269.888c1.022-.091 2.06.299 2.72 1.085.316.377.525.769.65 1.162.2.629-4.957.27-4.302.342 1.194.134 2.414.24 3.563.533.109.02.22.039.33.063l.019.006c.49.119.967.276 1.42.485a8.103 8.103 0 0 1 4.82 7.26 8.079 8.079 0 0 1-2.233 5.75 1.103 1.103 0 0 1-.12.119l-5.4-6.063-.257.559s-.011.056-.026.057l-.051.11a.996.996 0 0 1-1.897-.52l.295-2.86-.004-.173c-.017-.91 4.972-.852 4.062-.834-1.005.02-2.19.22-3.134-.213-.075-.033-.087-.03-.073-.016-3.295-.63-4.29-6.505-.382-6.852"/>
            <path fill="#6F2677" d="M505.844 276.74c.024.004.048.012.072.016.152.131-.04.02-.072-.017"/>
            <path fill="#FFDACF" d="M506.547 280.874a2.084 2.084 0 1 0 4.167-.085 2.084 2.084 0 0 0-4.167.085M484.232 326.07v-.041c-.096-.875.296-1.807.953-2.26l14.225-8.664c.99-.838 1.751-2.075 2.138-3.476 0 0 4.136-15.89 4.613-16.657l.005-.02.01-.004a4.92 4.92 0 0 1 4.033-2.303l.013-.008.013.006c.022 0 .045-.004.067-.004a4.93 4.93 0 0 1 4.974 4.886c.011 1.248-8.197 20.307-8.197 20.307-.686 1.81-1.985 3.19-3.453 3.679l-17.712 5.913c-.827.274-1.569-.33-1.682-1.354"/>
            <path fill="#FFACEA" d="M492.14 367.003l8.453 10.37 2.42 2.961 3.312 6.67a1.35 1.35 0 0 0 2.559-.599l.026-9.222-3.623-.01-1.765-3.63-4.949-10.194a17597.92 17597.92 0 0 0-6.434 3.654"/>
            <path fill="#6CCEFF" d="M520.936 315.345l-2.836 22.193-9.65-22.689z"/>
            <path fill="#3093D0" d="M509.169 290.882l.06-.016-.12.036.06-.02M520.107 290.644c.077.038.15.084.226.125-.085-.046-.168-.095-.254-.14.008.006.02.01.028.015M515.832 289.66a.106.106 0 0 1 .056 0c.04-.002.08.003.12.003-.06 0-.12-.004-.18-.003h.004z"/>
            <path fill="#353A3D" d="M484.835 347.315l27.955-19.128-.528-1.13 15.636-2.742.059.125c3.383 10.908-15.888 23.807-15.888 23.807-.796-.003 11.835-4.658-17.15 7.147l3.655 7.955 4.948 10.194 1.766 3.629 3.622.01-.025 9.223a1.35 1.35 0 0 1-2.56.598l-3.311-6.668-2.42-2.962-8.454-10.37-9.907-12.15c-1.71-2.256-1.346-4.465 2.602-7.538"/>
            <path fill="#F65B7D" d="M550.78 350.562a1.56 1.56 0 0 1-2.025.869c-13.684-5.47-29.266 1.212-34.737 14.896-.095.24-.186.483-.275.724a1.55 1.55 0 0 1-.812.874c-.378.174-.801.19-1.191.045l-.038-.013a1.57 1.57 0 0 1-.882-1.99c.099-.266.198-.533.304-.798 6.108-15.28 23.508-22.74 38.788-16.632a1.56 1.56 0 0 1 .868 2.025"/>
            <path fill="#C0C6CC" d="M520.896 369.139a19.772 19.772 0 0 1 18.244-11.952 19.61 19.61 0 0 1 7.743 1.614 19.647 19.647 0 0 1 10.552 10.853 19.643 19.643 0 0 1-.215 15.134c-2.087 4.844-5.94 8.588-10.855 10.543a19.75 19.75 0 0 1-7.382 1.415 19.587 19.587 0 0 1-7.75-1.621 19.643 19.643 0 0 1-10.55-10.852 19.648 19.648 0 0 1 .213-15.134m-3.86-1.664c-2.532 5.873-2.619 12.389-.25 18.347 2.37 5.959 6.91 10.633 12.783 13.164a23.786 23.786 0 0 0 9.391 1.956 23.975 23.975 0 0 0 22.121-14.49c5.232-12.143-.39-26.28-12.534-31.511a23.863 23.863 0 0 0-9.42-1.97 23.85 23.85 0 0 0-8.93 1.71c-5.952 2.368-10.625 6.91-13.16 12.794M459.864 356.67c10.905.03 19.753 8.926 19.723 19.83-.03 10.904-8.926 19.752-19.83 19.723-10.906-.03-19.753-8.926-19.723-19.83.029-10.906 8.926-19.752 19.83-19.723m-24.033 19.711c-.036 13.223 10.691 24.01 23.914 24.045 13.222.036 24.008-10.692 24.044-23.914.036-13.223-10.692-24.009-23.913-24.045-13.223-.036-24.009 10.691-24.045 23.914"/>
            <path fill="#D8D8D8" d="M539.217 393.47a1.923 1.923 0 1 1 .012-3.846c7.192.02 13.06-5.817 13.08-13.01a1.924 1.924 0 0 1 3.847.01c-.025 9.314-7.624 16.871-16.938 16.846M444.924 378.214a1.922 1.922 0 0 1-1.917-1.928c.025-9.314 7.624-16.87 16.938-16.845a1.922 1.922 0 0 1-.01 3.846c-7.195-.019-13.063 5.816-13.082 13.01a1.923 1.923 0 0 1-1.93 1.917"/>
            <path fill="#F65B7D" d="M498.452 371.801l-24.525-30.709 1.763-2.022 24.672 30.826a6.222 6.222 0 0 0-1.91 1.905"/>
            <path fill="#C64E73" d="M550.866 400.25l-32.105-57.08 1.432-1.66 33.819 60.478-1.847.191z"/>
            <path fill="#C64E73" d="M536.823 373.091l-1.107-1.667-13.814 31.15 1.896.001zM461.119 372.884l1.117-1.661 13.644 31.225-1.896-.009z"/>
            <path fill="#14AE32" d="M503.481 367.678l17.532-33.997 2.913 1.497-17.312 33.57a1.164 1.164 0 0 1-1.056.639c-.33-.008-.66-.004-.986.009a1.177 1.177 0 0 1-1.09-1.718"/>
            <path fill="#C64E73" d="M448.048 400.897c-.16.403-.153.845.019 1.243.17.399.489.706.892.866.192.076.392.115.596.115a1.618 1.618 0 0 0 1.516-1.026l27.552-68.068c.335-.83-.05-1.793-.881-2.127l-.03-.013c-.83-.331-1.771.096-2.105.925l-27.56 68.085z"/>
            <path fill="#F65B7D" d="M458.33 348.156a1.559 1.559 0 0 0 1.554 1.563c14.736.041 26.692 12.062 26.652 26.798-.001.258-.008.518-.016.776-.01.416.14.811.427 1.114.285.302.672.475 1.088.486l.04.001a1.567 1.567 0 0 0 1.562-1.514c.007-.285.015-.569.016-.855.045-16.454-13.305-29.878-29.761-29.923a1.56 1.56 0 0 0-1.562 1.554"/>
            <path fill="#65A1DB" d="M500.487 309.246l8.037 5.706 9.4-16.789a9.623 9.623 0 0 0-10.43-4.31l-.57.135-6.437 15.258z"/>
            <path fill="#14AE32" d="M530.617 335.377l-14.771-.04a1.753 1.753 0 0 1-1.743-1.752 1.752 1.752 0 0 1 1.752-1.742l14.77.04a1.753 1.753 0 0 1 1.744 1.752 1.752 1.752 0 0 1-1.752 1.742"/>
            <path fill="#FFC466" d="M459.816 374.408a2.04 2.04 0 0 0-2.045 2.032 2.041 2.041 0 0 0 2.033 2.045 2.041 2.041 0 0 0 2.045-2.033 2.04 2.04 0 0 0-2.033-2.044m-.02 7.496a5.463 5.463 0 0 1-5.443-5.473 5.463 5.463 0 0 1 5.472-5.442 5.462 5.462 0 0 1 5.442 5.472 5.464 5.464 0 0 1-5.472 5.443"/>
            <path fill="#9EA3A8" d="M497.82 376.964c-.01 4.003 3.237 7.27 7.24 7.28.962-.003 13.75-1.758 22.212-2.919 8.546-1.173 10.091-1.379 10.334-1.378a2.878 2.878 0 0 0 2.882-2.867 2.878 2.878 0 0 0-2.866-2.883c-.27 0-2.39-.297-10.679-1.482-8.32-1.188-20.894-2.984-21.843-2.99-4.003-.012-7.268 3.236-7.28 7.24m-1.929-.007c.014-5.066 4.148-9.178 9.214-9.164.973.003 10.178 1.307 22.111 3.011 5.11.73 9.94 1.42 10.44 1.464a4.808 4.808 0 0 1 4.762 4.817c-.007 2.648-2.167 4.797-4.77 4.79h-.002c-.397.027-5.116.675-10.11 1.36-12.138 1.666-21.5 2.94-22.48 2.937-5.068-.014-9.179-4.147-9.165-9.215"/>
            <path fill="#468EC7" d="M505.995 376.84a.146.146 0 0 0-.147.145c-.001.164.294.164.294.001a.147.147 0 0 0-.147-.147m-.013 4.568a4.426 4.426 0 0 1-4.41-4.433 4.426 4.426 0 0 1 4.435-4.409 4.425 4.425 0 0 1 4.409 4.433 4.425 4.425 0 0 1-4.434 4.41"/>
            <path fill="#FFC466" d="M536.15 376.202c-.769 1.693 1.002 3.332 2.7 2.29a1.13 1.13 0 0 0 .367-.367c1.051-1.692-.577-3.47-2.274-2.712a1.56 1.56 0 0 0-.793.79"/>
            <path fill="#F65B7D" d="M474.784 336.396l1.308-2.526-3.867-3.888.007-2.486 13.889.038a1.358 1.358 0 1 0 .008-2.718l-15.01-.041a1.597 1.597 0 0 0-1.602 1.593l-.012 4.73 5.279 5.298z"/>
            <path fill="#818A91" d="M501.353 366.283l2.976 17.002-4.333 5.447a1.348 1.348 0 0 0 2.419 1.025l6.781-4.953-1.166-2.732.676-14.948c-2.187-.25-4.733-.542-7.353-.84"/>
            <path fill="#F65B7D" d="M502.65 392.689l9.632-6.155-1.128-1.765-9.632 6.155z"/>
            <path fill="#4F5A60" d="M515.945 323.323l13.236.036c1.422.004 2.444 1.2 2.046 2.396l-.759 2.28-18.482 27.871-2.975 26.531a.724.724 0 0 1-.7.644l-3.865.1a1.028 1.028 0 0 1-1.044-.87l-4.263-27.419a5.64 5.64 0 0 1 .694-3.653l16.112-27.916z"/>
            <path fill="#3176DE" d="M503.553 311.381a18.458 18.458 0 0 1-.21-.766c-.033-.128-.06-.256-.09-.384-.03-.13-.063-.259-.091-.389-.031-.148-.058-.294-.087-.44-.02-.114-.042-.226-.063-.338a18.69 18.69 0 0 1-.072-.465c-.017-.106-.034-.21-.048-.317-.022-.158-.038-.316-.058-.474-.01-.104-.022-.206-.034-.31-.016-.16-.028-.32-.04-.479-.007-.102-.017-.203-.022-.305-.01-.16-.017-.32-.024-.482-.003-.1-.009-.2-.01-.3a25.93 25.93 0 0 1-.007-.483v-.297c.002-.162.003-.32.008-.48l.012-.297a24.731 24.731 0 0 1 .089-1.24 28.515 28.515 0 0 1 .089-.758 24.586 24.586 0 0 1 .252-1.48c.019-.092.04-.183.06-.275.034-.149.067-.3.103-.448.022-.087.046-.173.067-.259.04-.15.078-.3.12-.448l.073-.239c.046-.152.09-.303.137-.45l.072-.204c.053-.158.106-.316.163-.47l.019-.047c.21-.563.445-1.103.702-1.617l.1-.202c.063-.12.129-.237.194-.354.041-.077.082-.155.127-.23.063-.11.13-.217.195-.324.048-.079.096-.159.146-.236.065-.103.135-.202.202-.302l.157-.228c.07-.097.142-.19.213-.283a9.764 9.764 0 0 1 .391-.484c.057-.068.115-.136.174-.202.077-.086.156-.168.234-.25l.183-.186c.08-.08.163-.157.245-.233.062-.057.125-.112.187-.167.084-.074.171-.147.26-.217.063-.05.125-.099.19-.148a6.521 6.521 0 0 1 .464-.326c.095-.063.19-.124.288-.18.062-.038.125-.072.188-.108.103-.055.204-.11.308-.16.038-.02.079-.037.118-.055.27-.127.546-.24.829-.33l4.143-1.303a6 6 0 0 1 1.628-.272c.06-.002.121.003.18.003.454.001.901.052 1.344.156.065.016.13.037.195.055a6.253 6.253 0 0 1 .913.323c.216.096.428.205.637.325.062.035.126.065.187.103.27.164.535.348.793.552.086.068.17.145.254.217.13.11.258.216.382.335.075.071.147.151.221.226.131.133.263.264.39.407.064.075.126.156.19.233.13.155.26.31.385.476.06.08.114.167.173.248.123.175.248.348.365.534.06.092.113.193.171.29.112.183.224.366.329.56.064.118.122.246.183.37.093.181.187.36.274.548.079.174.15.36.224.538.062.15.128.294.187.448.13.34.25.69.364 1.051l9.61 34.374-24.45-1.225-5.774-19.426z"/>
            <path fill="url(#A)" d="M477.369 64.625c-7.224-29.27-12.057-44.159-14.498-44.668-3.662-.764-9.871 2.384-9.871 3.017-3.737 6.307-7.196 20.086 5.783 41.076l18.586.575z" transform="translate(55 269.01)"/>
            <path fill="#FFDACF" d="M486.605 325.226l.005-.04c.021-.88.533-1.751 1.245-2.112l15.245-6.708c1.093-.7 2.01-1.825 2.58-3.162 0 0 6.201-15.204 6.775-15.9l.008-.02.01-.003a4.922 4.922 0 0 1 4.303-1.75l.015-.005a.044.044 0 0 0 .011.008c.023.003.044.003.067.005a4.928 4.928 0 0 1 4.283 5.5c-.153 1.24-10.81 19.044-10.81 19.044-.92 1.704-2.389 2.9-3.91 3.19l-18.339 3.517c-.855.164-1.51-.532-1.488-1.564"/>
        </g>
        <g transform="translate(494 267.01)">
            <mask id="D" fill="#fff">
                <use xlink:href="#B"/>
            </mask>
            <path fill="url(#C)" d="M3.457 8.6l-1.933.161c-.556.046-.97.547-.925 1.119.045.573.531.999 1.087.953l3.582-.298 15.961.043c.001-.253.121-.914-.101-1.163-.078-.087-.246-.072-.398-.057-.15.015-.282.03-.291-.057-.529-4.88-4.136-8.66-8.517-8.672h-.021C7.729.629 4.247 4.052 3.457 8.6" mask="url(#D)"/>
        </g>
        <g transform="translate(498 268.01)">
            <mask id="G" fill="#fff">
                <use xlink:href="#E"/>
            </mask>
            <path fill="url(#F)" d="M.647 7.128l2.605.008L9.113.047h-.018C3.581.047.647 7.128.647 7.128" mask="url(#G)"/>
        </g>
        <g>
            <path fill="#C64E73" d="M562.536 406.454l-125.21-.342a1.953 1.953 0 0 1-1.948-1.959l.004-1.415a1.953 1.953 0 0 1 1.959-1.947l125.209.342a1.953 1.953 0 0 1 1.948 1.96l-.004 1.413a1.953 1.953 0 0 1-1.958 1.948"/>
            <path fill="#65A1DB" d="M505.693 310.997l8.036 5.706 9.401-16.789a9.624 9.624 0 0 0-10.43-4.31l-.57.135-6.437 15.258z"/>
            <path fill="url(#H)" d="M171.924 109.672l-33.536-.092.054-19.504 33.536.092z" transform="translate(435 295.01)"/>
            <path fill="#B9BDBF" d="M571.252 383.906l37.892.104-.005 1.878-37.892-.103zM571.195 404.599l37.892.104-.005 1.878-37.892-.103z"/>
            <path fill="#9EA3A8" d="M536.717 372.211a2.907 2.907 0 0 0-2.692 1.807l-.79 1.944a2.905 2.905 0 0 0 1.594 3.774l42.32 17.186a2.908 2.908 0 0 0 3.774-1.595l.79-1.945a2.906 2.906 0 0 0-1.595-3.775l-42.319-17.184a2.863 2.863 0 0 0-1.082-.212m0 2a.87.87 0 0 1 .33.064l42.318 17.186a.9.9 0 0 1 .495 1.17l-.79 1.943a.914.914 0 0 1-.839.56.868.868 0 0 1-.33-.066l-42.318-17.184a.91.91 0 0 1-.494-1.169l.789-1.945a.914.914 0 0 1 .84-.559"/>
            <path fill="#FFC466" d="M575.654 391.854c-.768 1.693 1.003 3.33 2.7 2.289.15-.091.277-.22.367-.366 1.052-1.692-.576-3.47-2.273-2.712a1.566 1.566 0 0 0-.794.789"/>
        </g>
        <g transform="translate(587 389.01)">
            <mask id="J" fill="#fff">
                <use xlink:href="#I"/>
            </mask>
            <path fill="#FFDEB3" d="M2.898.783L.263 6.666a.328.328 0 0 0 .298.461l2.291.006-.01 3.598c0 .155.107.288.258.321a.325.325 0 0 0 .367-.186l2.635-5.881a.327.327 0 0 0-.025-.312.323.323 0 0 0-.273-.149l-2.291-.007.01-3.599a.327.327 0 0 0-.258-.32.325.325 0 0 0-.367.185" mask="url(#J)"/>
        </g>
        <g transform="translate(268 135)">
            <path fill="url(#K)" d="M54.327 56.589L4.956 209c-.927-2.253-2.007-2.292-2.956-.034L4.28 49.347C3.337 36.083 54.327 43 54.327 56.589z" opacity=".75"/>
            <rect width="7" height="7" y="205" fill="#4F5A60" rx="3.5"/>
            <path fill="url(#L)" d="M142.892 11L76.96 218c-1.448-2.246-3.13-2.246-4.577-.04L22.636 9C21.142-3.916 144.385-1.826 142.892 11z" opacity=".75"/>
            <rect width="11" height="8" x="69" y="212" fill="#4F5A60" rx="4"/>
            <path fill="url(#M)" d="M119.428 65.976l14.867 144.429c.82-2.22 1.583-2.175 2.092.118l19.642-146.174c-.938-13.31-36.335-11.496-36.6 1.627z" opacity=".75" transform="rotate(-1 137.729 132.866)"/>
            <rect width="8" height="7" x="133" y="205" fill="#4F5A60" rx="3.5" transform="rotate(-180 137 208.5)"/>
        </g>
    </g>
</svg>
