<svg xmlns="http://www.w3.org/2000/svg" xmlns:xlink="http://www.w3.org/1999/xlink" width="200" height="88" viewBox="0 0 200 88">
    <defs>
        <linearGradient id="a" x1="98.823%" x2="15.601%" y1="36.68%" y2="60.148%">
            <stop offset="0%" stop-color="#E0DDF5"/>
            <stop offset="100%" stop-color="#EDFCFF"/>
        </linearGradient>
        <path id="b" d="M6.702 1.562h-.288L6.416.62h-.028L6.39.311a.011.011 0 0 0-.011-.01L1.124.286c-.005 0-.01.006-.01.01 0 .007.005.012.01.012h.096v.035h-.096c-.005 0-.01.006-.01.012s.005.01.01.01h.096v.037h-.096c-.005 0-.01.004-.01.01 0 .005.005.011.01.011h.096V.46h-.096c-.005 0-.01.005-.01.011 0 .006.005.01.01.01h.096v.037h-.096a.011.011 0 0 0-.01.01c0 .008.004.012.01.012h.095v.036h-.095c-.006 0-.01.003-.011.01 0 .006.005.012.01.012h.096v.008L.316.603.198 43.726l7.212.02L7.529.234 6.706.232l-.004 1.33zM1.242.344V.31l.407.001v.035h-.407zm.429.001V.31l.407.001v.036L1.671.345zm.428.002V.31l.408.002v.035L2.099.347zm.43 0V.314h.406V.35L2.53.348zm.428.002V.314l.407.001V.35h-.407zm.43.001V.315h.407v.036h-.408zm.429.001V.316l.407.001v.036L3.816.35zm.428.002V.318h.408v.036L4.244.353zm.43 0V.32h.407v.036L4.673.354zm.428.002V.32h.408v.036L5.102.355zm.429 0V.322l.408.001v.035L5.53.356zm.43.002V.322l.406.001v.035h-.406zM1.24.403V.367h.408v.037h-.407zm.43.001V.368l.407.001v.036H1.67zm.428.002V.369l.408.001v.036h-.408zm.43 0V.37l.406.001v.037L2.529.407zm.428.002V.37l.407.002v.036L2.957.408zm.429.001V.373h.408V.41L3.386.41zm.43.001V.374h.407v.037h-.407zm.428.001V.375l.408.001v.037L4.243.41zm.429.002V.376l.408.001v.037L4.673.413zm.429 0V.378l.408.001v.037L5.102.414zm.429.002V.378l.408.002v.036L5.53.415zm.43.001V.38h.406v.037L5.96.416zM1.24.46V.425h.408v.036L1.24.46zm.43 0V.427h.407v.036L1.67.461zm.428.002V.427l.408.001v.035h-.408zm.43.001V.428l.406.001v.035h-.407zm.428.001V.43l.407.002v.035L2.957.464zm.429.002V.43h.408v.036L3.385.466zm.43 0V.433h.407v.036L3.816.467zm.428.002V.433h.407V.47L4.244.468zm.429.001V.434l.408.001V.47h-.408zm.429.001V.435l.407.001v.035h-.407zm.429.001V.436l.407.001v.035h-.407zm.43.002V.438h.406v.036L5.96.473zM1.24.518V.482h.408V.52L1.24.518zm.43.001V.483l.407.001V.52H1.67zm.427.001V.484l.409.001v.037L2.097.52zm.43.002V.485l.407.001v.036h-.407zm.429 0V.486l.407.001v.037L2.957.522zm.429.002V.487l.407.002v.036L3.386.524zm.43.001V.489h.407v.037L3.815.525zm.428.001V.49h.407v.037h-.407zm.429.001V.491l.408.001V.53L4.672.527zm.429.002V.492l.407.001V.53L5.102.529zm.429 0V.494l.407.002V.53L5.531.53zm.43.002V.495h.406v.037L5.96.531zM1.24.576V.54l.407.001v.036L1.241.576zm.429 0V.542l.408.001v.036L1.67.577zm.428.002V.542l.408.001V.58h-.408zm.43.001V.543l.407.002V.58L2.528.579zm.429.002V.545h.407v.037L2.957.58zm.429 0V.547l.407.001v.036L3.386.582zm.429.002V.547l.408.001v.036L3.814.583zm.429 0V.549L4.65.55v.036L4.244.584zm.428.002V.55h.408v.036h-.408zm.43.001V.551h.407v.036h-.408zm.428.001V.552h.408V.59L5.53.587zm.43.002V.553l.407.001V.59L5.96.589zM1.24.606V.598l.408.001v.008L1.241.606zm.43 0V.6L2.078.6v.008L1.67.607zm.428.002V.6l.408.002v.007L2.098.608zm.43.001V.602h.407V.61L2.528.61zm.428.001V.603l.408.001v.007h-.408zm.43.001V.604l.407.001v.008L3.386.61zm.429.002V.605l.407.001v.008L3.815.613zm.429 0V.607l.407.002v.007L4.244.614zm.428.002V.608h.408v.008L4.672.615zm.43.001V.608l.407.002v.007h-.408zm.428.001V.61h.408V.62L5.53.617zm.43.002V.61l.407.001v.007H5.96z"/>
        <linearGradient id="c" x1="38.485%" x2="60.71%" y1="-40.286%" y2="60.481%">
            <stop offset="0%" stop-color="#E4EBF2"/>
            <stop offset="0%" stop-color="#E6EDF3"/>
            <stop offset="100%" stop-color="#F8FCFF"/>
        </linearGradient>
        <path id="e" d="M1.92.204L1.919 1.27H1.66v-.136h-.032l-.003.776h-.257v-.138h-.033l-.002.767-.261-.001v.119l-.37.612-.056 20.65-.453 1.177-.07 25.682 7.815.021.07-25.682-.447-1.18.057-20.649-.365-.614v-.12h-.261l.002-.767h-.033v.137h-.258l.002-.776h-.033v.135h-.259L6.416.215h-.033v.136h-.32V.214H6.03v.136L2.307.341V.205h-.032v.136L1.954.34V.204z"/>
        <linearGradient id="f" x1="40.145%" x2="59.166%" y1="-40.286%" y2="60.481%">
            <stop offset="0%" stop-color="#E4EBF2"/>
            <stop offset="0%" stop-color="#E6EDF3"/>
            <stop offset="100%" stop-color="#F8FCFF"/>
        </linearGradient>
        <linearGradient id="h" x1="9.858%" x2="58.646%" y1="32.841%" y2="58.796%">
            <stop offset="0%" stop-color="#D4EDA7"/>
            <stop offset="100%" stop-color="#B0CF7A"/>
        </linearGradient>
        <path id="i" d="M3 .223l-.001.291-.119.019h-.168V.47h-.09v.062L1.286.528.903.464.286.547V.74H.2l-.002.638h.065v.151H.198v.076h.064v.153H.198v.075h.064v.152H.196v.075H.26v.152H.196v.076H.26L.26 2.44H.196v.075H.26v.152H.195v.076h.064v.152H.194v.075h.065v.152H.193v.076h.064v.152H.192v.075h.064v.153H.192v.075h.065v.151H.192v.076h.064v.152H.19v.076h.064v.151H.19v.076h.064v.152H.19v.076h.064v.152H.19v.074h.064l-.001.153H.189v.075h.064v.153H.188v.075h.065v.152H.186v.075h.065v.152H.186V5.7H.25v.151H.186v.075H.25v.152H.184v.076H.25v.152H.185v.075h.064v.152H.184v.076H.25v.153H.184v.074h.064l-.002.8H.181L.144 21.219l3.62.01L3.8 7.645h-.065l.002-.801h.065v-.074H3.74v-.153h.065v-.075H3.74V6.39h.065v-.074H3.74v-.153h.065v-.075H3.74v-.152h.065V5.86h-.064V5.71h.065v-.076h-.064V5.48h.065v-.076h-.065v-.151h.065V5.18h-.064v-.153h.065v-.075h-.065l.001-.153h.065v-.074h-.065V4.57h.065v-.076h-.064v-.152h.065v-.075h-.064v-.152h.065v-.075h-.065v-.153h.065v-.075h-.064V3.66h.065v-.075h-.065v-.152h.065v-.075h-.064v-.153h.065v-.075h-.064v-.153h.064v-.074H3.75V2.75h.065v-.075H3.75v-.152h.065v-.076H3.75v-.152h.065v-.075h-.064v-.153h.065v-.074h-.064V1.84h.065v-.075h-.065v-.152h.065V1.54h-.064v-.152h.065L3.82.749h-.085V.557L3.299.476 3.3.223h-.039v.248l-.223.037.001-.285z"/>
        <linearGradient id="j" x1="37.578%" x2="61.553%" y1="-40.286%" y2="60.481%">
            <stop offset="0%" stop-color="#E4EBF2"/>
            <stop offset="0%" stop-color="#E6EDF3"/>
            <stop offset="100%" stop-color="#F8FCFF"/>
        </linearGradient>
        <path id="l" d="M9.46.23c-.001.098.072.176.165.193l-.002.75-5.79 2.473-.002.488c-.055.012-.093.032-.094.056 0 .022.039.04.093.054v.235c-.055.012-.094.03-.094.055 0 .022.038.04.093.052v.237c-.055.012-.094.032-.094.053 0 .024.039.043.093.054v.236c-.055.013-.093.03-.093.054 0 .023.038.044.092.055v.236c-.055.011-.093.03-.093.053s.038.042.093.055v.235c-.056.012-.094.031-.094.055 0 .023.038.04.093.053v.033l.401.001-.003 1.26-.402-.001-.001.483c-.055.013-.093.033-.093.056 0 .022.038.04.092.053v.237c-.055.01-.093.03-.093.053 0 .024.038.043.093.055l-.001.236c-.055.01-.093.03-.093.054 0 .022.038.04.093.052v.236c-.056.012-.094.032-.094.055 0 .022.038.043.093.053l-.001.237c-.055.01-.093.03-.093.053s.038.043.093.054v.235c-.056.014-.094.032-.094.055s.038.044.093.055v.235c-.056.012-.094.031-.094.054s.038.043.093.054L3.8 15.033l-.54-.001-.037 13.63-3.144-.009-.012 4.374 13.34.036.08-29.088L12.03.147l-2.342.999.002-.723A.197.197 0 0 0 9.858.23c0-.11-.088-.199-.199-.2-.11 0-.2.089-.2.2"/>
        <linearGradient id="m" x1="-16.965%" x2="112.283%" y1="-40.286%" y2="60.481%">
            <stop offset="0%" stop-color="#E4EBF2"/>
            <stop offset="0%" stop-color="#E6EDF3"/>
            <stop offset="100%" stop-color="#F8FCFF"/>
        </linearGradient>
        <linearGradient id="o" x1="50%" x2="50%" y1="-17.54%" y2="38.053%">
            <stop offset="0%" stop-color="#E4EBF2"/>
            <stop offset="100%" stop-color="#F8FCFF"/>
        </linearGradient>
        <path id="p" d="M11.374 20.5c-.283 5.12-5.46 4.016-9.129 2.57-1.474-.581-2.477.967-2.078 2.564 2.5 10.018 3.205 10.629 23.722 10.685C44.407 36.375 36.848.522 36.848.522L11.855.187s-.141 14.145-.481 20.313"/>
        <path id="r" d="M11.374 20.5c-.283 5.12-5.46 4.016-9.129 2.57-1.474-.581-2.477.967-2.078 2.564 2.5 10.018 3.205 10.629 23.722 10.685C44.407 36.375 36.848.522 36.848.522L11.855.187s-.141 14.145-.481 20.313"/>
        <path id="t" d="M37.082.054s5.621 37.343-12.983 37.292C5.494 37.296 2.874 30.03.4 25.166c-.746-1.467.604-3.145 2.078-2.564 3.67 1.446 8.846 2.551 9.129-2.57.34-6.168-2.025-18.281-2.025-18.281L37.082.054z"/>
        <linearGradient id="v" x1="9.95%" x2="50%" y1="12.955%" y2="67.942%">
            <stop offset="0%" stop-color="#F8FCFF"/>
            <stop offset="100%" stop-color="#E4EBF2"/>
        </linearGradient>
        <path id="w" d="M.156 42.563l16.13-.018S7.383 14.836 46.044.23c0 0-47.454 3.21-45.887 42.333"/>
        <linearGradient id="x" x1="30.607%" x2="59.833%" y1="21.134%" y2="50%">
            <stop offset="0%" stop-color="#65A1DB"/>
            <stop offset="100%" stop-color="#3176DE"/>
        </linearGradient>
        <linearGradient id="z" x1="0%" x2="50%" y1="38.535%" y2="61.465%">
            <stop offset="0%" stop-color="#D4EDA7"/>
            <stop offset="100%" stop-color="#B0CF7A"/>
        </linearGradient>
        <linearGradient id="A" x1="49.149%" x2="51.611%" y1="28.88%" y2="99.366%">
            <stop offset="0%" stop-color="#FFDEB3" stop-opacity="0"/>
            <stop offset="100%" stop-color="#FFC466"/>
        </linearGradient>
        <linearGradient id="B" x1="50%" x2="50%" y1="25.101%" y2="100%">
            <stop offset="0%" stop-color="#FFDEB3" stop-opacity="0"/>
            <stop offset="100%" stop-color="#FFDEB3"/>
        </linearGradient>
        <linearGradient id="C" x1="49.52%" x2="50.909%" y1="28.88%" y2="99.366%">
            <stop offset="0%" stop-color="#FFDEB3" stop-opacity="0"/>
            <stop offset="100%" stop-color="#FFC466"/>
        </linearGradient>
    </defs>
    <g fill="none" fill-rule="evenodd">
        <path fill="url(#a)" d="M0 150c149.32 51.339 286.348 71.339 411.084 60 187.103-17.008 449.13-210 695.14-210C1270.232 0 1381.49 32.703 1440 98.11v175.984c-180.667-42.73-330-8.472-448 102.773-120.088 113.213-198 277.43-537.917 301.39C227.473 694.233 76.111 729.438 0 783.876V150z" opacity=".256" transform="translate(-1009 -535)"/>
        <g transform="translate(129.372 25.074)">
            <mask id="d" fill="#fff">
                <use xlink:href="#b"/>
            </mask>
            <path fill="url(#c)" d="M6.702 1.562h-.288L6.416.62h-.028L6.39.311a.011.011 0 0 0-.011-.01L1.124.286c-.005 0-.01.006-.01.01 0 .007.005.012.01.012h.096v.035h-.096c-.005 0-.01.006-.01.012s.005.01.01.01h.096v.037h-.096c-.005 0-.01.004-.01.01 0 .005.005.011.01.011h.096V.46h-.096c-.005 0-.01.005-.01.011 0 .006.005.01.01.01h.096v.037h-.096a.011.011 0 0 0-.01.01c0 .008.004.012.01.012h.095v.036h-.095c-.006 0-.01.003-.011.01 0 .006.005.012.01.012h.096v.008L.316.603.198 43.726l7.212.02L7.529.234 6.706.232l-.004 1.33zM1.242.344V.31l.407.001v.035h-.407zm.429.001V.31l.407.001v.036L1.671.345zm.428.002V.31l.408.002v.035L2.099.347zm.43 0V.314h.406V.35L2.53.348zm.428.002V.314l.407.001V.35h-.407zm.43.001V.315h.407v.036h-.408zm.429.001V.316l.407.001v.036L3.816.35zm.428.002V.318h.408v.036L4.244.353zm.43 0V.32h.407v.036L4.673.354zm.428.002V.32h.408v.036L5.102.355zm.429 0V.322l.408.001v.035L5.53.356zm.43.002V.322l.406.001v.035h-.406zM1.24.403V.367h.408v.037h-.407zm.43.001V.368l.407.001v.036H1.67zm.428.002V.369l.408.001v.036h-.408zm.43 0V.37l.406.001v.037L2.529.407zm.428.002V.37l.407.002v.036L2.957.408zm.429.001V.373h.408V.41L3.386.41zm.43.001V.374h.407v.037h-.407zm.428.001V.375l.408.001v.037L4.243.41zm.429.002V.376l.408.001v.037L4.673.413zm.429 0V.378l.408.001v.037L5.102.414zm.429.002V.378l.408.002v.036L5.53.415zm.43.001V.38h.406v.037L5.96.416zM1.24.46V.425h.408v.036L1.24.46zm.43 0V.427h.407v.036L1.67.461zm.428.002V.427l.408.001v.035h-.408zm.43.001V.428l.406.001v.035h-.407zm.428.001V.43l.407.002v.035L2.957.464zm.429.002V.43h.408v.036L3.385.466zm.43 0V.433h.407v.036L3.816.467zm.428.002V.433h.407V.47L4.244.468zm.429.001V.434l.408.001V.47h-.408zm.429.001V.435l.407.001v.035h-.407zm.429.001V.436l.407.001v.035h-.407zm.43.002V.438h.406v.036L5.96.473zM1.24.518V.482h.408V.52L1.24.518zm.43.001V.483l.407.001V.52H1.67zm.427.001V.484l.409.001v.037L2.097.52zm.43.002V.485l.407.001v.036h-.407zm.429 0V.486l.407.001v.037L2.957.522zm.429.002V.487l.407.002v.036L3.386.524zm.43.001V.489h.407v.037L3.815.525zm.428.001V.49h.407v.037h-.407zm.429.001V.491l.408.001V.53L4.672.527zm.429.002V.492l.407.001V.53L5.102.529zm.429 0V.494l.407.002V.53L5.531.53zm.43.002V.495h.406v.037L5.96.531zM1.24.576V.54l.407.001v.036L1.241.576zm.429 0V.542l.408.001v.036L1.67.577zm.428.002V.542l.408.001V.58h-.408zm.43.001V.543l.407.002V.58L2.528.579zm.429.002V.545h.407v.037L2.957.58zm.429 0V.547l.407.001v.036L3.386.582zm.429.002V.547l.408.001v.036L3.814.583zm.429 0V.549L4.65.55v.036L4.244.584zm.428.002V.55h.408v.036h-.408zm.43.001V.551h.407v.036h-.408zm.428.001V.552h.408V.59L5.53.587zm.43.002V.553l.407.001V.59L5.96.589zM1.24.606V.598l.408.001v.008L1.241.606zm.43 0V.6L2.078.6v.008L1.67.607zm.428.002V.6l.408.002v.007L2.098.608zm.43.001V.602h.407V.61L2.528.61zm.428.001V.603l.408.001v.007h-.408zm.43.001V.604l.407.001v.008L3.386.61zm.429.002V.605l.407.001v.008L3.815.613zm.429 0V.607l.407.002v.007L4.244.614zm.428.002V.608h.408v.008L4.672.615zm.43.001V.608l.407.002v.007h-.408zm.428.001V.61h.408V.62L5.53.617zm.43.002V.61l.407.001v.007H5.96z" mask="url(#d)"/>
        </g>
        <g transform="translate(142.714 18.058)">
            <mask id="g" fill="#fff">
                <use xlink:href="#e"/>
            </mask>
            <path fill="url(#f)" d="M1.92.204L1.919 1.27H1.66v-.136h-.032l-.003.776h-.257v-.138h-.033l-.002.767-.261-.001v.119l-.37.612-.056 20.65-.453 1.177-.07 25.682 7.815.021.07-25.682-.447-1.18.057-20.649-.365-.614v-.12h-.261l.002-.767h-.033v.137h-.258l.002-.776h-.033v.135h-.259L6.416.215h-.033v.136h-.32V.214H6.03v.136L2.307.341V.205h-.032v.136L1.954.34V.204z" mask="url(#g)"/>
        </g>
        <path fill="#D4EDA7" d="M149.273 73.348c1.575-.493 3.408-4.13.674-4.137 1.58-2.313 1.088-4.052-1.977-3.978.582-.743.753-2.894.01-3.641-.909-.996-2.486.241-3.482.9-.16-1.82-1.32-2.155-2.73-1.165-.664.411-1.081 1.32-1.745 1.733-1.244.659-.58.164-1.24-.666-2.065-2.323-4.809 1.312-4.898 3.629-.823-1.906-2.233-1.082-2.735.571-.501 1.654-.259 3.724.234 5.298-1.952-.2-1.815 2.261-1.387 3.969l19.698.054c.244-.893.189-1.822-.422-2.567"/>
        <path fill="#D4EDA7" d="M157.537 73.508c1.437-.449 3.109-3.767.615-3.773 1.442-2.111.992-3.698-1.804-3.63.53-.678.687-2.641.009-3.323-.83-.908-2.268.22-3.177.822-.146-1.661-1.204-1.966-2.491-1.064-.606.376-.986 1.206-1.592 1.582-1.135.6-.529.15-1.132-.607-1.883-2.12-4.387 1.196-4.468 3.31-.751-1.739-2.038-.987-2.496.522-.457 1.509-.235 3.397.214 4.833-1.781-.183-1.656 2.063-1.265 3.622l17.972.048c.222-.814.172-1.662-.385-2.342"/>
        <path fill="url(#h)" d="M20.1 13.321c1.162-.363 2.513-3.043.498-3.049 1.165-1.705.802-2.987-1.458-2.932.43-.548.556-2.134.007-2.685-.67-.734-1.832.178-2.566.664-.119-1.342-.973-1.589-2.013-.86-.49.304-.797.975-1.286 1.278-.917.486-.428.121-.915-.49-1.522-1.713-3.544.966-3.61 2.674-.607-1.405-1.647-.797-2.016.422-.37 1.22-.191 2.745.172 3.905-1.439-.148-1.338 1.667-1.022 2.926l14.521.04c.18-.659.14-1.343-.311-1.893" transform="translate(129.714 60.615)"/>
        <g transform="translate(153.844 43.912)">
            <mask id="k" fill="#fff">
                <use xlink:href="#i"/>
            </mask>
            <path fill="url(#j)" d="M3 .223l-.001.291-.119.019h-.168V.47h-.09v.062L1.286.528.903.464.286.547V.74H.2l-.002.638h.065v.151H.198v.076h.064v.153H.198v.075h.064v.152H.196v.075H.26v.152H.196v.076H.26L.26 2.44H.196v.075H.26v.152H.195v.076h.064v.152H.194v.075h.065v.152H.193v.076h.064v.152H.192v.075h.064v.153H.192v.075h.065v.151H.192v.076h.064v.152H.19v.076h.064v.151H.19v.076h.064v.152H.19v.076h.064v.152H.19v.074h.064l-.001.153H.189v.075h.064v.153H.188v.075h.065v.152H.186v.075h.065v.152H.186V5.7H.25v.151H.186v.075H.25v.152H.184v.076H.25v.152H.185v.075h.064v.152H.184v.076H.25v.153H.184v.074h.064l-.002.8H.181L.144 21.219l3.62.01L3.8 7.645h-.065l.002-.801h.065v-.074H3.74v-.153h.065v-.075H3.74V6.39h.065v-.074H3.74v-.153h.065v-.075H3.74v-.152h.065V5.86h-.064V5.71h.065v-.076h-.064V5.48h.065v-.076h-.065v-.151h.065V5.18h-.064v-.153h.065v-.075h-.065l.001-.153h.065v-.074h-.065V4.57h.065v-.076h-.064v-.152h.065v-.075h-.064v-.152h.065v-.075h-.065v-.153h.065v-.075h-.064V3.66h.065v-.075h-.065v-.152h.065v-.075h-.064v-.153h.065v-.075h-.064v-.153h.064v-.074H3.75V2.75h.065v-.075H3.75v-.152h.065v-.076H3.75v-.152h.065v-.075h-.064v-.153h.065v-.074h-.064V1.84h.065v-.075h-.065v-.152h.065V1.54h-.064v-.152h.065L3.82.749h-.085V.557L3.299.476 3.3.223h-.039v.248l-.223.037.001-.285z" mask="url(#k)"/>
        </g>
        <g transform="translate(83.027 32.324)">
            <mask id="n" fill="#fff">
                <use xlink:href="#l"/>
            </mask>
            <path fill="url(#m)" d="M9.46.23c-.001.098.072.176.165.193l-.002.75-5.79 2.473-.002.488c-.055.012-.093.032-.094.056 0 .022.039.04.093.054v.235c-.055.012-.094.03-.094.055 0 .022.038.04.093.052v.237c-.055.012-.094.032-.094.053 0 .024.039.043.093.054v.236c-.055.013-.093.03-.093.054 0 .023.038.044.092.055v.236c-.055.011-.093.03-.093.053s.038.042.093.055v.235c-.056.012-.094.031-.094.055 0 .023.038.04.093.053v.033l.401.001-.003 1.26-.402-.001-.001.483c-.055.013-.093.033-.093.056 0 .022.038.04.092.053v.237c-.055.01-.093.03-.093.053 0 .024.038.043.093.055l-.001.236c-.055.01-.093.03-.093.054 0 .022.038.04.093.052v.236c-.056.012-.094.032-.094.055 0 .022.038.043.093.053l-.001.237c-.055.01-.093.03-.093.053s.038.043.093.054v.235c-.056.014-.094.032-.094.055s.038.044.093.055v.235c-.056.012-.094.031-.094.054s.038.043.093.054L3.8 15.033l-.54-.001-.037 13.63-3.144-.009-.012 4.374 13.34.036.08-29.088L12.03.147l-2.342.999.002-.723A.197.197 0 0 0 9.858.23c0-.11-.088-.199-.199-.2-.11 0-.2.089-.2.2" mask="url(#n)"/>
        </g>
        <path fill="url(#o)" d="M19.001.108l-.48-.001-.001.764h-.056v.12l-.935-.412-2.575.533.107.109v.229C10.899 1.144 8.01.942 8.01.942s-.24.07-.318.434c-.071.332.12.568.12.568s2.428.493 7.675.998l.49 11.028-2.175 15.344-.04.01v.145s-.478-.057-.914-.029c-.558.039-.916.157-.916.157v.142s-.478-.058-.914-.03c-.559.04-.916.156-.916.156v.145s-.48-.057-.914-.028c-.558.037-.916.155-.916.155v.144s-.478-.059-.913-.029a4.273 4.273 0 0 0-.917.153v.145s-.478-.057-.912-.027c-.56.037-.918.155-.918.155v.143s-.478-.057-.913-.028c-.56.038-.917.155-.917.155v.144s-.478-.06-.913-.03c-.56.04-.917.157-.917.157v.252l-.6.259v.306l-.347-.001L0 34.299l73.818.202.01-3.447h-.163l.003-1.382-.78-.003.002-.924h-.356l.002-.863s-.357-.119-.915-.158c-.435-.031-.914.023-.914.023v-.145s-.356-.118-.915-.16a5.625 5.625 0 0 0-.913.024v-.144s-.357-.118-.915-.16a5.558 5.558 0 0 0-.914.024l.001-.143s-.357-.12-.916-.161c-.435-.031-.914.024-.914.024v-.145s-.356-.118-.914-.16a5.623 5.623 0 0 0-.913.024v-.143s-.357-.12-.915-.16a5.833 5.833 0 0 0-.914.023V26.2s-.356-.118-.916-.157c-.434-.034-.913.022-.913.022v-.143s-.356-.12-.915-.162c-.434-.03-.913.025-.913.025v-.143s-.354-.12-.915-.122c-.562-.002-.916.117-.916.117v.143s-.479-.057-.914-.03c-.56.039-.916.157-.916.157v.05c-.16-2.071-.347-5.121-.34-7.951.012-4.12.163-11.945.21-14.295l.641-.014s.24-.202.133-.972c-.128-.909-.42-.975-.42-.975l-.454.018v-.18l-.216-.001v.19c-.789.03-2.234.083-4.11.14l.002-.657h-.056l.002-.766h-.096V.408l-.389-.001V.49h-.26V.428L48.7.427V.49L47.549.487l-.002.766h-.056l-.001.727c-.16.004-.32.01-.481.013v-.145l-1.493-.004v.186c-2.794.067-5.98.126-9.173.144l.001-.182-.952-.003v.19h-1.914a244.493 244.493 0 0 1-12.815-.364l.002-.938h-.055l.002-.765L19.196.11V0L19.003 0v.108zm5.933 13.695c.009-3.342.171-8.41.23-10.145 1.61.078 3.307.136 5.12.171l.484 12.48-1.298 11.707-.06.017v.144s-.478-.057-.912-.03c-.56.04-.918.158-.918.158v.144s-.478-.058-.914-.029a4.167 4.167 0 0 0-.916.155v.145s-.413-.05-.82-.032c-.001-3.651-.005-11.763.004-14.885zM39.55 28.207a2039.13 2039.13 0 0 1-.021-11.874c.01-4.05.191-10.441.252-12.47 1.745-.003 3.351-.012 4.806-.022.23 3.071.932 12.683.924 15.567-.003 1.218-.246 4.825-.476 7.988a5.343 5.343 0 0 0-.852-.023c-.559.038-.917.154-.917.154v.146s-.478-.058-.913-.029c-.56.036-.916.154-.916.154v.145s-.479-.06-.914-.03c-.56.04-.916.156-.916.156v.144l-.057-.006z" transform="translate(32 36.065)"/>
        <path fill="#B9BDBF" d="M97.784 23.141s1.847 2.687-1.474 6.211c-3.32 3.524 5.124-3.21 5.124-3.21l-.323-3.434-3.327.433z"/>
        <path fill="#266396" d="M85.971 77.529l-.008 2.901c-.004 1.602 9.024 2.926 20.165 2.956 11.14.03 20.176-1.243 20.18-2.846l.008-2.9-40.345-.111z"/>
        <path fill="#3176DE" d="M85.971 77.529c-.004 1.602 9.024 2.926 20.165 2.956 11.14.03 20.176-1.244 20.18-2.846.005-1.602-9.024-2.925-20.165-2.956-11.14-.03-20.175 1.244-20.18 2.846"/>
        <path fill="#266396" d="M88.226 73.83l-.007 2.577c-.004 1.424 8.02 2.6 17.92 2.628 9.902.027 17.932-1.106 17.936-2.53l.007-2.578-35.856-.098z"/>
        <path fill="#3176DE" d="M88.226 73.83c-.004 1.423 8.02 2.6 17.92 2.626 9.902.028 17.932-1.105 17.936-2.529.004-1.424-8.02-2.6-17.921-2.627-9.902-.027-17.931 1.105-17.935 2.53"/>
        <g transform="translate(88.176 38.17)">
            <mask id="q" fill="#fff">
                <use xlink:href="#p"/>
            </mask>
            <path d="M11.374 20.5c-.283 5.12-5.46 4.016-9.129 2.57-1.474-.581-2.477.967-2.078 2.564 2.5 10.018 3.205 10.629 23.722 10.685C44.407 36.375 36.848.522 36.848.522L11.855.187s-.141 14.145-.481 20.313" mask="url(#q)"/>
        </g>
        <g transform="translate(88.176 38.17)">
            <mask id="s" fill="#fff">
                <use xlink:href="#r"/>
            </mask>
            <path d="M11.374 20.5c-.283 5.12-5.46 4.016-9.129 2.57-1.474-.581-2.477.967-2.078 2.564 2.5 10.018 3.205 10.629 23.722 10.685C44.407 36.375 36.848.522 36.848.522L11.855.187s-.141 14.145-.481 20.313" mask="url(#s)"/>
        </g>
        <g>
            <g transform="translate(87.942 38.404)">
                <mask id="u" fill="#fff">
                    <use xlink:href="#t"/>
                </mask>
                <use fill="#CED5DC" xlink:href="#t"/>
                <path fill="#E4EBF2" d="M37.437 8.114c-1.035-.002-1.933-.469-2.375-1.147-.446.676-1.347 1.137-2.381 1.134-1.035-.002-1.933-.469-2.375-1.147-.446.676-1.347 1.137-2.382 1.134-1.034-.002-1.932-.469-2.375-1.148-.445.677-1.346 1.138-2.38 1.136-1.035-.003-1.933-.47-2.376-1.148-.446.675-1.346 1.137-2.38 1.135-1.035-.003-1.933-.47-2.376-1.148-.446.676-1.346 1.137-2.381 1.135-1.035-.003-1.932-.47-2.375-1.148-.446.676-1.346 1.137-2.38 1.135-1.035-.003-1.933-.47-2.376-1.148-.446.675-1.346 1.137-2.38 1.134-1.475-.003-2.672-.949-2.669-2.107a.295.295 0 0 1 .591.001c-.002.833.93 1.513 2.079 1.516 1.148.004 2.084-.671 2.087-1.504a.295.295 0 0 1 .59.001c-.002.833.93 1.513 2.079 1.517 1.148.003 2.084-.672 2.087-1.505a.295.295 0 1 1 .59.002c-.002.832.93 1.512 2.079 1.515 1.148.004 2.084-.671 2.087-1.504a.295.295 0 0 1 .59.001c-.002.833.93 1.513 2.079 1.516 1.148.004 2.085-.671 2.087-1.504a.295.295 0 0 1 .59.001c-.002.833.93 1.513 2.08 1.517 1.148.002 2.084-.672 2.086-1.505a.295.295 0 0 1 .59.001c-.002.833.93 1.513 2.079 1.516 1.148.003 2.085-.671 2.087-1.504a.295.295 0 0 1 .59.001c-.002.833.93 1.513 2.08 1.516 1.148.004 2.084-.671 2.086-1.504a.295.295 0 1 1 .59.001c-.002.833.93 1.513 2.08 1.516 1.148.003 2.084-.671 2.086-1.504a.295.295 0 0 1 .59.001c-.002 1.158-1.204 2.098-2.678 2.093zm-.017 5.901c-1.034-.003-1.932-.469-2.374-1.147-.447.676-1.347 1.137-2.381 1.134-1.035-.002-1.933-.469-2.375-1.147-.447.675-1.347 1.137-2.382 1.134-1.034-.002-1.932-.469-2.375-1.148-.445.677-1.346 1.138-2.38 1.135-1.035-.002-1.933-.47-2.376-1.147-.446.675-1.346 1.137-2.38 1.135-1.035-.003-1.933-.47-2.376-1.148-.446.676-1.346 1.137-2.381 1.135-1.035-.003-1.933-.47-2.375-1.149-.446.677-1.346 1.138-2.381 1.136-1.035-.003-1.932-.47-2.375-1.148-.446.675-1.346 1.137-2.381 1.134-1.474-.004-2.671-.949-2.668-2.107a.295.295 0 1 1 .59.001c-.001.833.931 1.513 2.08 1.516 1.148.004 2.084-.671 2.086-1.504a.295.295 0 0 1 .591.001c-.002.833.93 1.513 2.079 1.517 1.148.003 2.084-.672 2.087-1.505a.295.295 0 0 1 .59.001c-.002.833.93 1.513 2.079 1.516 1.148.004 2.084-.671 2.086-1.504a.295.295 0 0 1 .591.001c-.002.833.93 1.513 2.079 1.517 1.148.003 2.085-.672 2.087-1.505a.296.296 0 0 1 .59.001c-.002.833.93 1.513 2.079 1.516 1.148.003 2.084-.671 2.087-1.504a.295.295 0 0 1 .59.001c-.002.833.93 1.513 2.079 1.516 1.148.004 2.084-.671 2.087-1.504a.295.295 0 0 1 .59.001c-.002.833.93 1.513 2.079 1.516 1.149.004 2.085-.672 2.087-1.505a.295.295 0 0 1 .59.002c-.002.833.93 1.513 2.079 1.516 1.148.003 2.085-.671 2.087-1.504a.295.295 0 0 1 .59.001c-.003 1.158-1.204 2.097-2.679 2.093zm-.016 5.901c-1.034-.003-1.932-.47-2.374-1.148-.447.677-1.347 1.138-2.382 1.135-1.034-.002-1.932-.469-2.375-1.147-.446.675-1.346 1.137-2.38 1.135-1.035-.003-1.933-.47-2.376-1.149-.446.677-1.346 1.138-2.38 1.135-1.035-.002-1.933-.47-2.376-1.147-.446.675-1.346 1.137-2.38 1.134-1.036-.002-1.933-.469-2.376-1.147-.446.676-1.347 1.137-2.381 1.134-1.035-.002-1.933-.469-2.375-1.148-.446.677-1.346 1.138-2.381 1.136-1.035-.003-1.933-.47-2.375-1.148-.446.675-1.347 1.137-2.381 1.134-1.474-.003-2.671-.949-2.668-2.107a.295.295 0 0 1 .59.001c-.001.833.931 1.513 2.08 1.516 1.148.004 2.084-.671 2.086-1.504a.295.295 0 0 1 .59.001c-.001.833.931 1.513 2.08 1.517 1.148.002 2.084-.672 2.086-1.505a.295.295 0 0 1 .59.001c-.001.833.931 1.513 2.08 1.516 1.148.003 2.084-.671 2.086-1.504a.295.295 0 0 1 .591.001c-.002.833.93 1.513 2.078 1.516 1.149.004 2.085-.671 2.088-1.504a.295.295 0 1 1 .59.001c-.002.833.93 1.513 2.079 1.516 1.148.003 2.084-.671 2.087-1.504a.295.295 0 1 1 .59.001c-.002.833.93 1.513 2.079 1.516 1.148.004 2.084-.672 2.087-1.504a.295.295 0 0 1 .59.001c-.002.833.93 1.513 2.079 1.516 1.148.004 2.085-.672 2.087-1.505a.295.295 0 0 1 .59.002c-.002.833.93 1.513 2.079 1.516 1.148.003 2.085-.671 2.087-1.504a.295.295 0 0 1 .59.001c-.003 1.159-1.205 2.097-2.679 2.093zm-.016 5.901c-1.034-.003-1.932-.47-2.375-1.148-.446.677-1.346 1.138-2.38 1.135-1.035-.002-1.933-.47-2.376-1.148-.446.676-1.347 1.138-2.381 1.136-1.035-.003-1.933-.47-2.375-1.149-.446.677-1.346 1.138-2.38 1.135-1.035-.002-1.933-.47-2.376-1.147-.446.675-1.346 1.137-2.38 1.134-1.036-.002-1.934-.469-2.376-1.147-.446.675-1.347 1.137-2.381 1.134-1.035-.002-1.933-.469-2.375-1.148-.446.677-1.347 1.138-2.381 1.135-1.035-.002-1.933-.47-2.375-1.147-.446.675-1.347 1.137-2.381 1.135-1.474-.004-2.671-.95-2.668-2.108a.295.295 0 0 1 .59.001c-.002.833.93 1.513 2.08 1.517 1.148.003 2.084-.672 2.086-1.505a.296.296 0 0 1 .59.001c-.001.833.931 1.513 2.08 1.517 1.148.002 2.084-.673 2.086-1.505a.295.295 0 0 1 .59.001c-.001.833.931 1.513 2.08 1.516 1.148.004 2.084-.671 2.086-1.504a.295.295 0 0 1 .59.001c-.001.833.931 1.513 2.08 1.516 1.148.004 2.084-.672 2.086-1.505a.296.296 0 0 1 .591.002c-.002.833.93 1.513 2.079 1.516 1.148.003 2.084-.671 2.086-1.504a.295.295 0 0 1 .591.001c-.002.833.93 1.513 2.079 1.516 1.148.004 2.084-.672 2.086-1.504a.295.295 0 0 1 .591.001c-.002.833.93 1.513 2.079 1.516 1.148.003 2.085-.671 2.087-1.504a.295.295 0 0 1 .59.001c-.002.833.93 1.513 2.079 1.516 1.148.003 2.084-.672 2.087-1.504a.295.295 0 0 1 .59.001c-.003 1.159-1.205 2.097-2.679 2.093zm-.016 5.901c-1.034-.003-1.933-.47-2.375-1.147-.446.675-1.346 1.137-2.38 1.134-1.035-.002-1.933-.47-2.376-1.148-.446.676-1.347 1.138-2.381 1.135-1.035-.002-1.933-.469-2.375-1.148-.446.677-1.347 1.138-2.381 1.135-1.035-.003-1.933-.47-2.375-1.148-.446.676-1.347 1.138-2.381 1.135-1.035-.002-1.933-.469-2.375-1.147-.446.675-1.347 1.137-2.381 1.135-1.035-.003-1.933-.47-2.375-1.149-.446.677-1.347 1.138-2.381 1.135-1.035-.002-1.933-.47-2.375-1.147-.446.675-1.347 1.137-2.381 1.134-1.475-.003-2.671-.949-2.668-2.107a.296.296 0 0 1 .59.001c-.002.833.93 1.513 2.079 1.516 1.148.004 2.085-.671 2.087-1.504a.295.295 0 1 1 .59.001c-.002.833.931 1.513 2.08 1.516 1.148.003 2.084-.671 2.086-1.504a.295.295 0 0 1 .59.001c-.001.833.93 1.513 2.08 1.516 1.148.004 2.084-.672 2.086-1.504a.295.295 0 0 1 .59.001c-.001.833.93 1.513 2.08 1.516 1.148.004 2.084-.672 2.086-1.505a.295.295 0 0 1 .591.002c-.002.833.93 1.513 2.079 1.516 1.148.003 2.084-.671 2.086-1.504a.295.295 0 0 1 .59.001c-.001.833.931 1.513 2.08 1.516 1.148.003 2.084-.672 2.086-1.504a.296.296 0 0 1 .591.001c-.002.833.93 1.513 2.079 1.516 1.148.003 2.084-.671 2.087-1.504a.295.295 0 1 1 .59.001c-.002.833.93 1.513 2.079 1.516 1.148.003 2.084-.672 2.087-1.504a.295.295 0 0 1 .59.001c-.003 1.158-1.205 2.097-2.679 2.093z" mask="url(#u)"/>
                <path fill="#7C8084" fill-opacity=".5" d="M7.958-6.548h30.43V26.66L7.957 13.888z" mask="url(#u)"/>
            </g>
            <path fill="url(#v)" d="M16.547 21.291c.187-.166.409-.215.843-.264l.358-.356a.435.435 0 0 1 .614.001l.248.249c.225-.033.462-.083.725-.17.998-.329 2.274-1.593 2.787-2.214.695-.84.515-2.613-.45-2.649-1.487-.055-1.942.625-3.132.912l-.675.67a.523.523 0 0 1-.739-.002l-.55-.553c-1.3-.11-1.432-1.472-1.394-2.69l.417-3.674c.948-1.614 2.473.632 5.282-1.425 2.06-1.51.816-2.932 2.45-3.981 1.634-1.05 5.55-2.644 5.55-2.644l12.61 11-15.663 11.256s-4.284.634-7.277.294c-1.008-.115-2.343.045-2.274-1.73.022-.571.014-1.885.27-2.03" transform="translate(76.707 8.002)"/>
            <path fill="#585C5E" d="M92.226 20.484a2.655 2.655 0 0 0 2.653-2.428c-1.186-.027-1.99-.496-2.573.498l-.218 1.923c.046.002.091.007.138.007"/>
            <path fill="#CED5DC" d="M106.003 11.17s8.471 5.007-.51 13.622c-8.41 8.067-18.13 14.091-9.389 27.674.984 1.528 3.066 1.891 4.49.76 2.972-2.361 8.403-6.037 14.876-7.472 7.446-1.65 15.917-6.46 15.059-16.874-.802-9.73-9.802-20.66-24.526-17.71"/>
            <path fill="#B9BDBF" d="M101.003 19.024c.158.747 1.015 1.158 1.757.829 1.438-.64 2.336-1.653 2.141-2.575-.194-.922-1.425-1.486-3-1.49-.811-.003-1.43.719-1.272 1.467l.374 1.769z"/>
            <path fill="#DCDEDF" d="M100.415 18.506a1.061 1.061 0 0 0 1.23 1.107c1.294-.222 2.235-.886 2.28-1.718.045-.833-.82-1.595-2.083-1.955a1.06 1.06 0 0 0-1.341.968l-.086 1.598z"/>
            <path fill="#FFF" d="M100.329 17.831c.015.967.384 1.744.824 1.737.44-.007.784-.795.768-1.762-.015-.966-.385-1.743-.824-1.737-.44.007-.784.796-.768 1.762"/>
            <path fill="#EBF1F7" d="M104.507 11.05c-.272 1.714.36 3.238 1.412 3.405 1.051.166 2.124-1.088 2.397-2.802.272-1.713-.36-3.238-1.412-3.404-1.052-.167-2.125 1.087-2.397 2.801"/>
            <path fill="#E4EBF2" d="M100.352 48.813c-2.67-2.394-7.645-5.025-11.792 3.157l1.053 6.889 5.893-2.765s.145-4.434 4.267-5.182c.974-.178 1.327-1.428.579-2.099"/>
            <path fill="#9EA3A8" d="M84.845 50.324s-5.717.82-7.92 4.766c-.445.796-.047 1.813.806 2.06 2.531.732 7.752 2.585 10.808 6.08.398.455 1.121.269 1.267-.326l.777-3.156-5.738-9.424z"/>
            <path fill="#C0C6CC" d="M100.34 53.98c1.02-.314 1.408-1.61.73-2.46-1.06-1.33-3.047-2.608-6.533-1.28-6.067 2.313-4.655 6.627-4.655 6.627s.082-8.33-3.45-10.024c-2.777-1.334-6.077-.647-8.57 1.748-.81.778-.405 2.17.673 2.413 2.516.569 6.458 4.418 9.904 12.006.322.709 1.11 1.05 1.818.778l.021-.008c.743-.284 1.296-.933 1.49-1.73.499-2.052 2.273-6.126 8.573-8.07"/>
            <path fill="#FFF" d="M105.547 11.125s1.463.478 1.844 1.139c0 0 .574-2.96-.59-3.115-1.165-.156-1.254 1.976-1.254 1.976"/>
            <path fill="#C0C6CC" d="M111.081 10.682s8.119 25.81 5.526 35.683l13.87-4.107a3.127 3.127 0 0 0 2.207-3.445c-1.031-7.195-5.3-26.397-21.603-28.131"/>
            <path fill="#9EA3A8" d="M111.081 10.682s7.615 27.47-3.888 37.906l18.967-.984a2.563 2.563 0 0 0 2.432-2.5c.162-7.402-.765-29.802-17.51-34.422"/>
            <path fill="#C0C6CC" d="M111.108 10.646s3.743 27.454-6.56 37.63c-.712.703-.215 1.914.786 1.91l13.402-.037a2.839 2.839 0 0 0 2.763-2.212c1.6-7.114 5.199-29.44-10.391-37.29"/>
        </g>
        <g transform="translate(53.066 25.074)">
            <mask id="y" fill="#fff">
                <use xlink:href="#w"/>
            </mask>
            <path fill="url(#x)" fill-opacity=".8" d="M.156 42.563l16.13-.018S7.383 14.836 46.044.23c0 0-47.454 3.21-45.887 42.333" mask="url(#y)"/>
        </g>
        <g>
            <path fill="#D4EDA7" d="M66.977 76.013c.854-.211 2.348.006 2.28-1.415-.067-1.28-2.128-2.21-3.194-2.497.712-.282 1.355-1.133 1.001-1.987-.495-1.068-2.486-1.144-3.267-1.857-.852-.713-.213-.143-.424-.925-.987-3.344-2.485-1.713-5.33-2.218.649-3.126-4.552-.155-5.62-.087-.498-.001-.994-.5-1.563-.502-.57-.001-1.21.353-1.71.707-.926.708-1.216 2.413-1.999 2.766-.499.212-.853-.429-1.494.067-.286.284-.501 1.065-.644 1.42-.286.568-.502 1.42-1.072 1.703-.428.212-.996-.145-1.494.067-.855.495-.501 1.206-.575 2.06-.002.852.07.568-.287.994-.357.354-.926.495-1.212.991-.441.745-.51 1.557-.327 2.345l27.779.076c-.332-.687-.71-1.318-.848-1.708"/>
            <path fill="#D4EDA7" d="M77.79 76.042c.854-.21 2.348.007 2.28-1.415-.067-1.28-2.127-2.21-3.194-2.496.713-.283 1.355-1.134 1.002-1.988-.495-1.067-2.487-1.144-3.268-1.857-.851-.713-.213-.142-.424-.925-.987-3.343-2.485-1.713-5.33-2.218.65-3.125-4.552-.154-5.62-.086-.497-.001-.994-.5-1.563-.502-.57-.001-1.21.352-1.71.706-.926.708-1.215 2.413-1.999 2.767-.498.212-.852-.43-1.494.067-.285.283-.5 1.064-.644 1.42-.286.567-.502 1.42-1.072 1.702-.427.212-.995-.145-1.494.067-.855.495-.501 1.207-.575 2.06-.002.853.07.569-.287.994-.357.355-.926.495-1.212.992-.441.744-.51 1.557-.327 2.344l27.779.076c-.332-.687-.71-1.317-.848-1.708"/>
            <path fill="url(#z)" d="M32.27 15.029c.76-.188 2.086.006 2.026-1.257-.06-1.137-1.89-1.963-2.838-2.218.633-.251 1.204-1.007.89-1.765-.44-.949-2.209-1.017-2.902-1.65-.757-.634-.19-.127-.377-.822-.877-2.97-2.208-1.521-4.735-1.97.577-2.777-4.044-.137-4.992-.077-.442-.001-.884-.444-1.39-.446-.505-.001-1.075.313-1.518.628-.823.629-1.08 2.143-1.776 2.457-.443.188-.757-.38-1.327.06-.254.252-.445.946-.572 1.26-.255.505-.446 1.263-.953 1.514-.38.188-.884-.129-1.327.06-.76.44-.445 1.071-.51 1.829-.003.757.061.505-.256.883-.317.315-.823.44-1.077.881-.391.661-.452 1.384-.29 2.083l24.677.067c-.294-.61-.63-1.17-.752-1.517" transform="translate(39.724 61.188)"/>
            <path fill="#3176DE" d="M52.376 63.858c-.277-1.245-.66-1.884-.954-2.208a.939.939 0 0 0-.429-.323.943.943 0 1 0-.574 1.79l.009.004c.688.253 1.248.546 1.634.916.135.129.354.003.314-.18M69.466 67.269c.364-1.013.754-1.507 1.034-1.747a.794.794 0 0 1 .329-.207c.04-.015.064-.018.064-.018a.796.796 0 0 1 .969.664.795.795 0 0 1-.679.896l-.007.001c-.603.14-1.103.325-1.466.593-.127.094-.297-.034-.244-.182"/>
        </g>
        <g transform="translate(89.626 24.703)">
            <path fill="url(#A)" d="M12.635 13.104L1.153 48.398c-.216-.522-.467-.531-.688-.008l.53-36.963c-.219-3.071 11.64-1.47 11.64 1.677z" opacity=".75"/>
            <rect width="1.628" height="1.621" y="47.472" fill="#4F5A60" rx=".81"/>
            <path fill="url(#B)" d="M33.233 2.547L17.9 50.482c-.337-.52-.728-.52-1.064-.01L5.265 2.085c-.348-2.99 28.316-2.507 27.968.463z" opacity=".75"/>
            <rect width="2.558" height="1.853" x="16.048" y="49.093" fill="#4F5A60" rx=".926"/>
            <path fill="url(#C)" d="M27.775 15.278l3.46 33.445c.191-.514.369-.503.487.027l4.566-33.848c-.219-3.083-8.451-2.663-8.513.376z" opacity=".75" transform="rotate(-1 32.031 30.767)"/>
            <rect width="1.861" height="1.621" x="30.933" y="47.472" fill="#4F5A60" rx=".81" transform="rotate(-180 31.863 48.282)"/>
        </g>
        <path d="M0 1h200v88H0z"/>
    </g>
</svg>
